<svg xmlns="http://www.w3.org/2000/svg" width="810" viewBox="0 0 810 810" height="810" version="1.0"><defs><clipPath id="a"><path d="M 275.53125 175 L 401 175 L 401 361 L 275.53125 361 Z M 275.53125 175"/></clipPath></defs><path fill="#FFF" d="M-81 -81H891V891H-81z"/><path fill="#FFF" d="M-81 -81H891V891H-81z"/><path fill="#D3E8FC" d="M-81 -81H891V891H-81z"/><path d="M 511.621094 385.511719 L 475.269531 311.480469 C 475.148438 311.238281 475.003906 311.015625 474.835938 310.816406 L 435.632812 266.246094 C 434.863281 265.367188 433.78125 264.835938 432.617188 264.757812 C 431.480469 264.710938 430.3125 265.070312 429.429688 265.847656 C 429.097656 266.136719 428.484375 266.980469 428.308594 267.390625 C 424.585938 275.941406 425.777344 285.859375 431.425781 293.277344 L 431.972656 294 L 415.167969 285.933594 C 412.972656 284.890625 410.359375 285.824219 409.320312 287.988281 C 409.125 288.382812 408.890625 289.410156 408.890625 289.859375 C 408.800781 299.183594 413.777344 307.847656 421.863281 312.464844 L 457.453125 332.761719 L 462.867188 375.953125 C 462.066406 375.4375 461.316406 374.835938 460.625 374.164062 L 441.433594 355.679688 C 435.050781 349.53125 425.378906 347.9375 417.382812 351.703125 C 416.652344 352.046875 415.722656 353.082031 415.449219 353.835938 C 415.179688 354.589844 415.238281 355.984375 415.582031 356.722656 C 415.683594 356.933594 415.917969 357.3125 416.078125 357.5 L 448.105469 396.527344 C 449.082031 397.714844 450.238281 398.714844 451.5625 399.515625 L 494.175781 425.0625 L 507.386719 448.316406 C 507.9375 449.292969 508.960938 449.847656 510.007812 449.847656 C 510.503906 449.847656 511.019531 449.71875 511.488281 449.460938 C 512.933594 448.636719 513.4375 446.792969 512.621094 445.351562 L 499.019531 421.398438 C 498.769531 420.941406 498.394531 420.5625 497.945312 420.304688 L 454.652344 394.339844 C 453.933594 393.90625 453.292969 393.363281 452.769531 392.707031 L 422.707031 356.171875 C 427.824219 354.902344 433.382812 356.292969 437.269531 360.035156 L 456.453125 378.511719 C 459.054688 381.015625 462.273438 382.816406 465.761719 383.722656 C 466.738281 383.96875 467.753906 383.722656 468.507812 383.066406 C 469.253906 382.410156 469.632812 381.421875 469.503906 380.425781 L 462.53125 324.886719 C 462.464844 324.359375 462.261719 323.863281 461.941406 323.429688 L 436.214844 289.621094 C 432.433594 284.644531 431.257812 278.195312 432.9375 272.289062 L 470.054688 314.5 L 506.417969 388.5625 C 506.542969 388.820312 506.710938 389.066406 506.910156 389.277344 L 528.746094 412.863281 C 529.878906 414.085938 531.78125 414.144531 533 413.023438 C 534.222656 411.886719 534.296875 409.988281 533.164062 408.765625 Z M 415.058594 292.566406 L 439.996094 304.527344 L 455.226562 324.550781 L 424.851562 307.226562 C 419.410156 304.140625 415.816406 298.664062 415.058594 292.566406 Z M 415.058594 292.566406"/><g clip-path="url(#a)"><path d="M 387.949219 312.644531 L 352.363281 292.34375 L 346.941406 249.164062 C 347.75 249.683594 348.5 250.277344 349.1875 250.941406 L 368.375 269.433594 C 374.753906 275.582031 384.425781 277.183594 392.445312 273.40625 C 394.304688 272.519531 395.105469 270.277344 394.226562 268.402344 C 394.125 268.179688 393.890625 267.8125 393.734375 267.625 L 361.695312 228.59375 C 360.714844 227.40625 359.566406 226.40625 358.253906 225.617188 L 315.640625 200.066406 L 302.429688 176.808594 C 301.59375 175.355469 299.753906 174.851562 298.320312 175.675781 C 296.871094 176.496094 296.371094 178.339844 297.191406 179.785156 L 310.789062 203.738281 C 311.046875 204.1875 311.414062 204.5625 311.867188 204.832031 L 355.15625 230.796875 C 355.878906 231.226562 356.523438 231.78125 357.046875 232.429688 L 387.109375 268.953125 C 381.992188 270.242188 376.425781 268.84375 372.546875 265.101562 L 353.355469 246.609375 C 350.757812 244.101562 347.539062 242.308594 344.054688 241.402344 C 343.085938 241.160156 342.066406 241.402344 341.308594 242.058594 C 340.5625 242.714844 340.191406 243.703125 340.3125 244.699219 L 347.277344 300.230469 C 347.34375 300.753906 347.550781 301.253906 347.867188 301.683594 L 373.59375 335.5 C 377.371094 340.464844 378.539062 346.90625 376.867188 352.824219 L 339.757812 310.625 L 303.398438 236.550781 C 303.273438 236.292969 303.105469 236.050781 302.90625 235.835938 L 281.070312 212.257812 C 279.933594 211.027344 278.03125 210.960938 276.816406 212.09375 C 275.59375 213.226562 275.527344 215.136719 276.652344 216.355469 L 298.195312 239.609375 L 334.546875 313.632812 C 334.667969 313.875 334.8125 314.097656 334.984375 314.292969 L 374.183594 358.867188 C 374.960938 359.746094 376.03125 360.277344 377.199219 360.347656 C 377.292969 360.359375 377.390625 360.359375 377.480469 360.359375 C 378.558594 360.359375 379.574219 359.976562 380.378906 359.253906 C 380.710938 358.96875 381.324219 358.121094 381.5 357.722656 C 385.226562 349.175781 384.027344 339.246094 378.390625 331.828125 L 377.839844 331.113281 L 394.648438 339.175781 C 395.25 339.457031 395.894531 339.597656 396.53125 339.597656 C 397.023438 339.597656 397.519531 339.511719 397.992188 339.347656 C 399.101562 338.964844 399.984375 338.164062 400.496094 337.089844 C 400.683594 336.703125 400.925781 335.679688 400.925781 335.238281 C 401.015625 325.917969 396.03125 317.253906 387.949219 312.644531 Z M 369.832031 320.597656 L 354.589844 300.554688 L 384.972656 317.878906 C 390.398438 320.976562 394 326.449219 394.761719 332.558594 Z M 369.832031 320.597656"/></g><g><g><g><path d="M 21.046875 -40.578125 C 23.085938 -40.578125 24.976562 -40.023438 26.71875 -38.921875 C 28.457031 -37.828125 29.835938 -36.332031 30.859375 -34.4375 C 31.890625 -32.539062 32.40625 -30.453125 32.40625 -28.171875 C 32.40625 -25.890625 31.890625 -23.78125 30.859375 -21.84375 C 29.835938 -19.914062 28.457031 -18.390625 26.71875 -17.265625 C 24.976562 -16.148438 23.085938 -15.59375 21.046875 -15.59375 L 10.140625 -15.59375 L 10.140625 -2.78125 C 10.140625 -2.007812 9.890625 -1.351562 9.390625 -0.8125 C 8.890625 -0.269531 8.253906 0 7.484375 0 C 6.671875 0 6.019531 -0.257812 5.53125 -0.78125 C 5.050781 -1.300781 4.8125 -1.96875 4.8125 -2.78125 L 4.8125 -37.796875 C 4.8125 -38.566406 5.082031 -39.222656 5.625 -39.765625 C 6.164062 -40.304688 6.820312 -40.578125 7.59375 -40.578125 Z M 21.046875 -20.875 C 22.085938 -20.875 23.050781 -21.207031 23.9375 -21.875 C 24.832031 -22.550781 25.539062 -23.453125 26.0625 -24.578125 C 26.582031 -25.703125 26.84375 -26.898438 26.84375 -28.171875 C 26.84375 -30.140625 26.269531 -31.8125 25.125 -33.1875 C 23.988281 -34.5625 22.628906 -35.25 21.046875 -35.25 L 10.140625 -35.25 L 10.140625 -20.875 Z M 21.046875 -20.875" transform="translate(178.105 525.337)"/></g></g></g><g><g><g><path d="M 19.25 -31.078125 C 20.25 -31.078125 21.113281 -30.8125 21.84375 -30.28125 C 22.582031 -29.757812 22.953125 -29.113281 22.953125 -28.34375 C 22.953125 -27.414062 22.707031 -26.707031 22.21875 -26.21875 C 21.738281 -25.738281 21.15625 -25.5 20.46875 -25.5 C 20.113281 -25.5 19.585938 -25.617188 18.890625 -25.859375 C 18.085938 -26.128906 17.453125 -26.265625 16.984375 -26.265625 C 15.785156 -26.265625 14.613281 -25.847656 13.46875 -25.015625 C 12.332031 -24.179688 11.40625 -23.039062 10.6875 -21.59375 C 9.976562 -20.144531 9.625 -18.53125 9.625 -16.75 L 9.625 -2.78125 C 9.625 -2.007812 9.363281 -1.351562 8.84375 -0.8125 C 8.320312 -0.269531 7.65625 0 6.84375 0 C 6.03125 0 5.367188 -0.257812 4.859375 -0.78125 C 4.359375 -1.300781 4.109375 -1.96875 4.109375 -2.78125 L 4.109375 -27.59375 C 4.109375 -28.363281 4.367188 -29.019531 4.890625 -29.5625 C 5.421875 -30.101562 6.070312 -30.375 6.84375 -30.375 C 7.65625 -30.375 8.320312 -30.101562 8.84375 -29.5625 C 9.363281 -29.019531 9.625 -28.363281 9.625 -27.59375 L 9.625 -24.640625 C 10.46875 -26.535156 11.738281 -28.070312 13.4375 -29.25 C 15.144531 -30.425781 17.082031 -31.035156 19.25 -31.078125 Z M 19.25 -31.078125" transform="translate(212.886 525.337)"/></g></g></g><g><g><g><path d="M 30.78125 -16.34375 C 30.738281 -15.644531 30.445312 -15.054688 29.90625 -14.578125 C 29.363281 -14.097656 28.726562 -13.859375 28 -13.859375 L 7.59375 -13.859375 C 7.863281 -11.035156 8.9375 -8.769531 10.8125 -7.0625 C 12.6875 -5.363281 14.976562 -4.515625 17.6875 -4.515625 C 19.539062 -4.515625 21.046875 -4.785156 22.203125 -5.328125 C 23.359375 -5.867188 24.382812 -6.566406 25.28125 -7.421875 C 25.851562 -7.765625 26.410156 -7.9375 26.953125 -7.9375 C 27.609375 -7.9375 28.160156 -7.703125 28.609375 -7.234375 C 29.054688 -6.773438 29.28125 -6.238281 29.28125 -5.625 C 29.28125 -4.8125 28.890625 -4.078125 28.109375 -3.421875 C 26.992188 -2.296875 25.507812 -1.347656 23.65625 -0.578125 C 21.800781 0.191406 19.90625 0.578125 17.96875 0.578125 C 14.84375 0.578125 12.085938 -0.078125 9.703125 -1.390625 C 7.328125 -2.703125 5.492188 -4.535156 4.203125 -6.890625 C 2.910156 -9.253906 2.265625 -11.921875 2.265625 -14.890625 C 2.265625 -18.140625 2.929688 -20.988281 4.265625 -23.4375 C 5.597656 -25.894531 7.351562 -27.78125 9.53125 -29.09375 C 11.71875 -30.414062 14.066406 -31.078125 16.578125 -31.078125 C 19.054688 -31.078125 21.375 -30.4375 23.53125 -29.15625 C 25.695312 -27.882812 27.4375 -26.125 28.75 -23.875 C 30.0625 -21.632812 30.738281 -19.125 30.78125 -16.34375 Z M 16.578125 -25.96875 C 14.410156 -25.96875 12.535156 -25.359375 10.953125 -24.140625 C 9.367188 -22.921875 8.328125 -21.035156 7.828125 -18.484375 L 24.921875 -18.484375 L 24.921875 -18.953125 C 24.734375 -21.003906 23.816406 -22.6875 22.171875 -24 C 20.523438 -25.3125 18.660156 -25.96875 16.578125 -25.96875 Z M 16.578125 -25.96875" transform="translate(236.828 525.337)"/></g></g></g><g><g><g><path d="M 17.328125 -31.078125 C 20.378906 -31.078125 22.921875 -30.59375 24.953125 -29.625 C 26.984375 -28.65625 28 -27.414062 28 -25.90625 C 28 -25.25 27.785156 -24.660156 27.359375 -24.140625 C 26.929688 -23.617188 26.390625 -23.359375 25.734375 -23.359375 C 25.234375 -23.359375 24.835938 -23.4375 24.546875 -23.59375 C 24.253906 -23.75 23.859375 -24 23.359375 -24.34375 C 23.128906 -24.570312 22.765625 -24.84375 22.265625 -25.15625 C 21.796875 -25.382812 21.132812 -25.578125 20.28125 -25.734375 C 19.4375 -25.890625 18.664062 -25.96875 17.96875 -25.96875 C 15.957031 -25.96875 14.175781 -25.503906 12.625 -24.578125 C 11.082031 -23.648438 9.882812 -22.363281 9.03125 -20.71875 C 8.1875 -19.082031 7.765625 -17.257812 7.765625 -15.25 C 7.765625 -13.195312 8.179688 -11.359375 9.015625 -9.734375 C 9.847656 -8.109375 11.015625 -6.832031 12.515625 -5.90625 C 14.023438 -4.976562 15.75 -4.515625 17.6875 -4.515625 C 19.6875 -4.515625 21.304688 -4.828125 22.546875 -5.453125 C 22.816406 -5.609375 23.1875 -5.859375 23.65625 -6.203125 C 24.039062 -6.515625 24.375 -6.742188 24.65625 -6.890625 C 24.945312 -7.046875 25.304688 -7.125 25.734375 -7.125 C 26.503906 -7.125 27.113281 -6.882812 27.5625 -6.40625 C 28.007812 -5.925781 28.234375 -5.296875 28.234375 -4.515625 C 28.234375 -3.703125 27.71875 -2.898438 26.6875 -2.109375 C 25.664062 -1.316406 24.296875 -0.671875 22.578125 -0.171875 C 20.859375 0.328125 19.015625 0.578125 17.046875 0.578125 C 14.109375 0.578125 11.515625 -0.101562 9.265625 -1.46875 C 7.023438 -2.84375 5.296875 -4.738281 4.078125 -7.15625 C 2.867188 -9.570312 2.265625 -12.269531 2.265625 -15.25 C 2.265625 -18.21875 2.898438 -20.910156 4.171875 -23.328125 C 5.453125 -25.742188 7.226562 -27.640625 9.5 -29.015625 C 11.78125 -30.390625 14.390625 -31.078125 17.328125 -31.078125 Z M 17.328125 -31.078125" transform="translate(269.87 525.337)"/></g></g></g><g><g><g><path d="M 9.328125 -2.78125 C 9.328125 -2.007812 9.066406 -1.351562 8.546875 -0.8125 C 8.023438 -0.269531 7.359375 0 6.546875 0 C 5.773438 0 5.128906 -0.269531 4.609375 -0.8125 C 4.085938 -1.351562 3.828125 -2.007812 3.828125 -2.78125 L 3.828125 -27.890625 C 3.828125 -28.660156 4.085938 -29.316406 4.609375 -29.859375 C 5.128906 -30.398438 5.773438 -30.671875 6.546875 -30.671875 C 7.359375 -30.671875 8.023438 -30.398438 8.546875 -29.859375 C 9.066406 -29.316406 9.328125 -28.660156 9.328125 -27.890625 Z M 6.546875 -34.484375 C 5.429688 -34.484375 4.628906 -34.6875 4.140625 -35.09375 C 3.660156 -35.5 3.421875 -36.148438 3.421875 -37.046875 L 3.421875 -37.96875 C 3.421875 -38.894531 3.679688 -39.550781 4.203125 -39.9375 C 4.722656 -40.320312 5.523438 -40.515625 6.609375 -40.515625 C 7.691406 -40.515625 8.472656 -40.3125 8.953125 -39.90625 C 9.429688 -39.5 9.671875 -38.851562 9.671875 -37.96875 L 9.671875 -37.046875 C 9.671875 -36.117188 9.421875 -35.457031 8.921875 -35.0625 C 8.421875 -34.675781 7.628906 -34.484375 6.546875 -34.484375 Z M 6.546875 -34.484375" transform="translate(299.666 525.337)"/></g></g></g><g><g><g><path d="M 2.375 -4.75 C 2.03125 -5.289062 1.859375 -5.8125 1.859375 -6.3125 C 1.859375 -7.09375 2.265625 -7.753906 3.078125 -8.296875 C 3.460938 -8.566406 3.90625 -8.703125 4.40625 -8.703125 C 5.101562 -8.703125 5.738281 -8.410156 6.3125 -7.828125 C 7.476562 -6.515625 8.726562 -5.53125 10.0625 -4.875 C 11.394531 -4.21875 12.988281 -3.890625 14.84375 -3.890625 C 16.3125 -3.921875 17.601562 -4.253906 18.71875 -4.890625 C 19.84375 -5.535156 20.40625 -6.570312 20.40625 -8 C 20.40625 -9.3125 19.832031 -10.316406 18.6875 -11.015625 C 17.550781 -11.710938 15.882812 -12.347656 13.6875 -12.921875 C 11.519531 -13.503906 9.71875 -14.113281 8.28125 -14.75 C 6.851562 -15.382812 5.644531 -16.3125 4.65625 -17.53125 C 3.675781 -18.75 3.1875 -20.34375 3.1875 -22.3125 C 3.1875 -24.050781 3.675781 -25.578125 4.65625 -26.890625 C 5.644531 -28.210938 6.960938 -29.238281 8.609375 -29.96875 C 10.253906 -30.707031 12.039062 -31.078125 13.96875 -31.078125 C 15.820312 -31.078125 17.664062 -30.726562 19.5 -30.03125 C 21.34375 -29.332031 22.84375 -28.269531 24 -26.84375 C 24.457031 -26.300781 24.6875 -25.738281 24.6875 -25.15625 C 24.6875 -24.539062 24.378906 -23.941406 23.765625 -23.359375 C 23.378906 -23.015625 22.894531 -22.84375 22.3125 -22.84375 C 21.625 -22.84375 21.066406 -23.070312 20.640625 -23.53125 C 19.828125 -24.457031 18.832031 -25.171875 17.65625 -25.671875 C 16.476562 -26.179688 15.171875 -26.4375 13.734375 -26.4375 C 12.265625 -26.4375 11.019531 -26.132812 10 -25.53125 C 8.976562 -24.9375 8.46875 -23.921875 8.46875 -22.484375 C 8.5 -21.140625 9.082031 -20.132812 10.21875 -19.46875 C 11.363281 -18.8125 13.117188 -18.175781 15.484375 -17.5625 C 17.523438 -17.019531 19.222656 -16.4375 20.578125 -15.8125 C 21.929688 -15.195312 23.070312 -14.28125 24 -13.0625 C 24.925781 -11.851562 25.390625 -10.265625 25.390625 -8.296875 C 25.390625 -6.472656 24.867188 -4.894531 23.828125 -3.5625 C 22.785156 -2.226562 21.421875 -1.203125 19.734375 -0.484375 C 18.054688 0.222656 16.269531 0.578125 14.375 0.578125 C 11.9375 0.578125 9.679688 0.15625 7.609375 -0.6875 C 5.546875 -1.539062 3.800781 -2.894531 2.375 -4.75 Z M 2.375 -4.75" transform="translate(312.826 525.337)"/></g></g></g><g><g><g><path d="M 32.875 -15.1875 C 32.875 -12.175781 32.195312 -9.472656 30.84375 -7.078125 C 29.488281 -4.679688 27.640625 -2.804688 25.296875 -1.453125 C 22.960938 -0.0976562 20.382812 0.578125 17.5625 0.578125 C 14.738281 0.578125 12.15625 -0.0976562 9.8125 -1.453125 C 7.476562 -2.804688 5.632812 -4.679688 4.28125 -7.078125 C 2.9375 -9.472656 2.265625 -12.175781 2.265625 -15.1875 C 2.265625 -18.195312 2.9375 -20.921875 4.28125 -23.359375 C 5.632812 -25.796875 7.476562 -27.691406 9.8125 -29.046875 C 12.15625 -30.398438 14.738281 -31.078125 17.5625 -31.078125 C 20.382812 -31.078125 22.960938 -30.398438 25.296875 -29.046875 C 27.640625 -27.691406 29.488281 -25.796875 30.84375 -23.359375 C 32.195312 -20.921875 32.875 -18.195312 32.875 -15.1875 Z M 27.359375 -15.1875 C 27.359375 -17.269531 26.921875 -19.132812 26.046875 -20.78125 C 25.179688 -22.425781 24.003906 -23.703125 22.515625 -24.609375 C 21.035156 -25.515625 19.382812 -25.96875 17.5625 -25.96875 C 15.75 -25.96875 14.097656 -25.515625 12.609375 -24.609375 C 11.117188 -23.703125 9.9375 -22.425781 9.0625 -20.78125 C 8.195312 -19.132812 7.765625 -17.269531 7.765625 -15.1875 C 7.765625 -13.132812 8.195312 -11.296875 9.0625 -9.671875 C 9.9375 -8.054688 11.117188 -6.789062 12.609375 -5.875 C 14.097656 -4.96875 15.75 -4.515625 17.5625 -4.515625 C 19.382812 -4.515625 21.035156 -4.96875 22.515625 -5.875 C 24.003906 -6.789062 25.179688 -8.054688 26.046875 -9.671875 C 26.921875 -11.296875 27.359375 -13.132812 27.359375 -15.1875 Z M 27.359375 -15.1875" transform="translate(340.477 525.337)"/></g></g></g><g><g><g><path d="M 28.75 -42.890625 C 29.5625 -42.890625 30.226562 -42.628906 30.75 -42.109375 C 31.269531 -41.585938 31.53125 -40.921875 31.53125 -40.109375 L 31.53125 -2.78125 C 31.53125 -2.007812 31.269531 -1.351562 30.75 -0.8125 C 30.226562 -0.269531 29.5625 0 28.75 0 C 27.9375 0 27.28125 -0.257812 26.78125 -0.78125 C 26.28125 -1.300781 26.03125 -1.96875 26.03125 -2.78125 L 26.03125 -4.40625 C 25.0625 -3.007812 23.695312 -1.828125 21.9375 -0.859375 C 20.175781 0.0976562 18.296875 0.578125 16.296875 0.578125 C 13.660156 0.578125 11.28125 -0.0976562 9.15625 -1.453125 C 7.03125 -2.804688 5.347656 -4.6875 4.109375 -7.09375 C 2.878906 -9.507812 2.265625 -12.226562 2.265625 -15.25 C 2.265625 -18.257812 2.867188 -20.972656 4.078125 -23.390625 C 5.296875 -25.804688 6.96875 -27.691406 9.09375 -29.046875 C 11.226562 -30.398438 13.566406 -31.078125 16.109375 -31.078125 C 18.160156 -31.078125 20.054688 -30.648438 21.796875 -29.796875 C 23.535156 -28.941406 24.945312 -27.835938 26.03125 -26.484375 L 26.03125 -40.109375 C 26.03125 -40.921875 26.28125 -41.585938 26.78125 -42.109375 C 27.28125 -42.628906 27.9375 -42.890625 28.75 -42.890625 Z M 16.921875 -4.515625 C 18.742188 -4.515625 20.359375 -4.976562 21.765625 -5.90625 C 23.179688 -6.832031 24.285156 -8.109375 25.078125 -9.734375 C 25.867188 -11.359375 26.265625 -13.195312 26.265625 -15.25 C 26.265625 -17.257812 25.867188 -19.082031 25.078125 -20.71875 C 24.285156 -22.363281 23.179688 -23.648438 21.765625 -24.578125 C 20.359375 -25.503906 18.742188 -25.96875 16.921875 -25.96875 C 15.109375 -25.96875 13.492188 -25.503906 12.078125 -24.578125 C 10.671875 -23.648438 9.570312 -22.363281 8.78125 -20.71875 C 7.988281 -19.082031 7.59375 -17.257812 7.59375 -15.25 C 7.59375 -13.195312 7.988281 -11.359375 8.78125 -9.734375 C 9.570312 -8.109375 10.671875 -6.832031 12.078125 -5.90625 C 13.492188 -4.976562 15.109375 -4.515625 16.921875 -4.515625 Z M 16.921875 -4.515625" transform="translate(391.664 525.337)"/></g></g></g><g><g><g><path d="M 30.78125 -16.34375 C 30.738281 -15.644531 30.445312 -15.054688 29.90625 -14.578125 C 29.363281 -14.097656 28.726562 -13.859375 28 -13.859375 L 7.59375 -13.859375 C 7.863281 -11.035156 8.9375 -8.769531 10.8125 -7.0625 C 12.6875 -5.363281 14.976562 -4.515625 17.6875 -4.515625 C 19.539062 -4.515625 21.046875 -4.785156 22.203125 -5.328125 C 23.359375 -5.867188 24.382812 -6.566406 25.28125 -7.421875 C 25.851562 -7.765625 26.410156 -7.9375 26.953125 -7.9375 C 27.609375 -7.9375 28.160156 -7.703125 28.609375 -7.234375 C 29.054688 -6.773438 29.28125 -6.238281 29.28125 -5.625 C 29.28125 -4.8125 28.890625 -4.078125 28.109375 -3.421875 C 26.992188 -2.296875 25.507812 -1.347656 23.65625 -0.578125 C 21.800781 0.191406 19.90625 0.578125 17.96875 0.578125 C 14.84375 0.578125 12.085938 -0.078125 9.703125 -1.390625 C 7.328125 -2.703125 5.492188 -4.535156 4.203125 -6.890625 C 2.910156 -9.253906 2.265625 -11.921875 2.265625 -14.890625 C 2.265625 -18.140625 2.929688 -20.988281 4.265625 -23.4375 C 5.597656 -25.894531 7.351562 -27.78125 9.53125 -29.09375 C 11.71875 -30.414062 14.066406 -31.078125 16.578125 -31.078125 C 19.054688 -31.078125 21.375 -30.4375 23.53125 -29.15625 C 25.695312 -27.882812 27.4375 -26.125 28.75 -23.875 C 30.0625 -21.632812 30.738281 -19.125 30.78125 -16.34375 Z M 16.578125 -25.96875 C 14.410156 -25.96875 12.535156 -25.359375 10.953125 -24.140625 C 9.367188 -22.921875 8.328125 -21.035156 7.828125 -18.484375 L 24.921875 -18.484375 L 24.921875 -18.953125 C 24.734375 -21.003906 23.816406 -22.6875 22.171875 -24 C 20.523438 -25.3125 18.660156 -25.96875 16.578125 -25.96875 Z M 16.578125 -25.96875" transform="translate(427.257 525.337)"/></g></g></g><g><g><g><path d="M 28.75 -30.78125 C 29.5625 -30.78125 30.226562 -30.519531 30.75 -30 C 31.269531 -29.476562 31.53125 -28.789062 31.53125 -27.9375 L 31.53125 -2.78125 C 31.53125 -2.007812 31.269531 -1.351562 30.75 -0.8125 C 30.226562 -0.269531 29.5625 0 28.75 0 C 27.9375 0 27.28125 -0.257812 26.78125 -0.78125 C 26.28125 -1.300781 26.03125 -1.96875 26.03125 -2.78125 L 26.03125 -4.296875 C 25.019531 -2.941406 23.644531 -1.789062 21.90625 -0.84375 C 20.164062 0.101562 18.296875 0.578125 16.296875 0.578125 C 13.660156 0.578125 11.269531 -0.0976562 9.125 -1.453125 C 6.976562 -2.804688 5.296875 -4.6875 4.078125 -7.09375 C 2.867188 -9.507812 2.265625 -12.226562 2.265625 -15.25 C 2.265625 -18.257812 2.867188 -20.972656 4.078125 -23.390625 C 5.296875 -25.804688 6.96875 -27.691406 9.09375 -29.046875 C 11.226562 -30.398438 13.566406 -31.078125 16.109375 -31.078125 C 18.160156 -31.078125 20.066406 -30.648438 21.828125 -29.796875 C 23.585938 -28.941406 24.988281 -27.859375 26.03125 -26.546875 L 26.03125 -27.9375 C 26.03125 -28.75 26.28125 -29.425781 26.78125 -29.96875 C 27.28125 -30.507812 27.9375 -30.78125 28.75 -30.78125 Z M 16.921875 -4.515625 C 18.742188 -4.515625 20.359375 -4.976562 21.765625 -5.90625 C 23.179688 -6.832031 24.285156 -8.109375 25.078125 -9.734375 C 25.867188 -11.359375 26.265625 -13.195312 26.265625 -15.25 C 26.265625 -17.257812 25.867188 -19.070312 25.078125 -20.6875 C 24.285156 -22.3125 23.179688 -23.597656 21.765625 -24.546875 C 20.359375 -25.492188 18.742188 -25.96875 16.921875 -25.96875 C 15.109375 -25.96875 13.492188 -25.503906 12.078125 -24.578125 C 10.671875 -23.648438 9.570312 -22.375 8.78125 -20.75 C 7.988281 -19.125 7.59375 -17.289062 7.59375 -15.25 C 7.59375 -13.195312 7.988281 -11.359375 8.78125 -9.734375 C 9.570312 -8.109375 10.671875 -6.832031 12.078125 -5.90625 C 13.492188 -4.976562 15.109375 -4.515625 16.921875 -4.515625 Z M 16.921875 -4.515625" transform="translate(476.357 525.337)"/></g></g></g><g><g><g><path d="M 1.390625 11.421875 C 0.660156 11.421875 0.0546875 11.164062 -0.421875 10.65625 C -0.910156 10.15625 -1.15625 9.5625 -1.15625 8.875 L -1.15625 8.34375 C -1.15625 7.070312 -0.363281 6.242188 1.21875 5.859375 C 3.6875 5.160156 4.921875 3.226562 4.921875 0.0625 L 4.921875 -27.59375 C 4.921875 -28.363281 5.179688 -29.019531 5.703125 -29.5625 C 6.234375 -30.101562 6.898438 -30.375 7.703125 -30.375 C 8.484375 -30.375 9.132812 -30.101562 9.65625 -29.5625 C 10.175781 -29.019531 10.4375 -28.363281 10.4375 -27.59375 L 10.4375 1.453125 C 10.4375 3.460938 10.019531 5.21875 9.1875 6.71875 C 8.351562 8.226562 7.238281 9.390625 5.84375 10.203125 C 4.457031 11.015625 2.972656 11.421875 1.390625 11.421875 Z M 7.65625 -34.484375 C 6.539062 -34.484375 5.738281 -34.6875 5.25 -35.09375 C 4.769531 -35.5 4.53125 -36.148438 4.53125 -37.046875 L 4.53125 -37.96875 C 4.53125 -38.894531 4.789062 -39.550781 5.3125 -39.9375 C 5.832031 -40.320312 6.632812 -40.515625 7.71875 -40.515625 C 8.800781 -40.515625 9.582031 -40.3125 10.0625 -39.90625 C 10.539062 -39.5 10.78125 -38.851562 10.78125 -37.96875 L 10.78125 -37.046875 C 10.78125 -36.117188 10.53125 -35.457031 10.03125 -35.0625 C 9.53125 -34.675781 8.738281 -34.484375 7.65625 -34.484375 Z M 7.65625 -34.484375" transform="translate(511.95 525.337)"/></g></g></g><g><g><g><path d="M 26.71875 -30.375 C 27.53125 -30.375 28.195312 -30.101562 28.71875 -29.5625 C 29.238281 -29.019531 29.5 -28.363281 29.5 -27.59375 L 29.5 -12.171875 C 29.5 -8.148438 28.390625 -5.03125 26.171875 -2.8125 C 23.953125 -0.59375 20.8125 0.515625 16.75 0.515625 C 12.726562 0.515625 9.613281 -0.59375 7.40625 -2.8125 C 5.207031 -5.03125 4.109375 -8.148438 4.109375 -12.171875 L 4.109375 -27.59375 C 4.109375 -28.363281 4.367188 -29.019531 4.890625 -29.5625 C 5.421875 -30.101562 6.070312 -30.375 6.84375 -30.375 C 7.65625 -30.375 8.320312 -30.101562 8.84375 -29.5625 C 9.363281 -29.019531 9.625 -28.363281 9.625 -27.59375 L 9.625 -12.171875 C 9.625 -7.109375 12 -4.578125 16.75 -4.578125 C 19.113281 -4.578125 20.910156 -5.210938 22.140625 -6.484375 C 23.378906 -7.765625 24 -9.660156 24 -12.171875 L 24 -27.59375 C 24 -28.363281 24.257812 -29.019531 24.78125 -29.5625 C 25.300781 -30.101562 25.945312 -30.375 26.71875 -30.375 Z M 26.71875 -30.375" transform="translate(527.08 525.337)"/></g></g></g><g><g><g><path d="M 28.75 -42.890625 C 29.5625 -42.890625 30.226562 -42.628906 30.75 -42.109375 C 31.269531 -41.585938 31.53125 -40.921875 31.53125 -40.109375 L 31.53125 -2.78125 C 31.53125 -2.007812 31.269531 -1.351562 30.75 -0.8125 C 30.226562 -0.269531 29.5625 0 28.75 0 C 27.9375 0 27.28125 -0.257812 26.78125 -0.78125 C 26.28125 -1.300781 26.03125 -1.96875 26.03125 -2.78125 L 26.03125 -4.40625 C 25.0625 -3.007812 23.695312 -1.828125 21.9375 -0.859375 C 20.175781 0.0976562 18.296875 0.578125 16.296875 0.578125 C 13.660156 0.578125 11.28125 -0.0976562 9.15625 -1.453125 C 7.03125 -2.804688 5.347656 -4.6875 4.109375 -7.09375 C 2.878906 -9.507812 2.265625 -12.226562 2.265625 -15.25 C 2.265625 -18.257812 2.867188 -20.972656 4.078125 -23.390625 C 5.296875 -25.804688 6.96875 -27.691406 9.09375 -29.046875 C 11.226562 -30.398438 13.566406 -31.078125 16.109375 -31.078125 C 18.160156 -31.078125 20.054688 -30.648438 21.796875 -29.796875 C 23.535156 -28.941406 24.945312 -27.835938 26.03125 -26.484375 L 26.03125 -40.109375 C 26.03125 -40.921875 26.28125 -41.585938 26.78125 -42.109375 C 27.28125 -42.628906 27.9375 -42.890625 28.75 -42.890625 Z M 16.921875 -4.515625 C 18.742188 -4.515625 20.359375 -4.976562 21.765625 -5.90625 C 23.179688 -6.832031 24.285156 -8.109375 25.078125 -9.734375 C 25.867188 -11.359375 26.265625 -13.195312 26.265625 -15.25 C 26.265625 -17.257812 25.867188 -19.082031 25.078125 -20.71875 C 24.285156 -22.363281 23.179688 -23.648438 21.765625 -24.578125 C 20.359375 -25.503906 18.742188 -25.96875 16.921875 -25.96875 C 15.109375 -25.96875 13.492188 -25.503906 12.078125 -24.578125 C 10.671875 -23.648438 9.570312 -22.363281 8.78125 -20.71875 C 7.988281 -19.082031 7.59375 -17.257812 7.59375 -15.25 C 7.59375 -13.195312 7.988281 -11.359375 8.78125 -9.734375 C 9.570312 -8.109375 10.671875 -6.832031 12.078125 -5.90625 C 13.492188 -4.976562 15.109375 -4.515625 16.921875 -4.515625 Z M 16.921875 -4.515625" transform="translate(560.702 525.337)"/></g></g></g><g><g><g><path d="M 28.75 -30.78125 C 29.5625 -30.78125 30.226562 -30.519531 30.75 -30 C 31.269531 -29.476562 31.53125 -28.789062 31.53125 -27.9375 L 31.53125 -2.78125 C 31.53125 -2.007812 31.269531 -1.351562 30.75 -0.8125 C 30.226562 -0.269531 29.5625 0 28.75 0 C 27.9375 0 27.28125 -0.257812 26.78125 -0.78125 C 26.28125 -1.300781 26.03125 -1.96875 26.03125 -2.78125 L 26.03125 -4.296875 C 25.019531 -2.941406 23.644531 -1.789062 21.90625 -0.84375 C 20.164062 0.101562 18.296875 0.578125 16.296875 0.578125 C 13.660156 0.578125 11.269531 -0.0976562 9.125 -1.453125 C 6.976562 -2.804688 5.296875 -4.6875 4.078125 -7.09375 C 2.867188 -9.507812 2.265625 -12.226562 2.265625 -15.25 C 2.265625 -18.257812 2.867188 -20.972656 4.078125 -23.390625 C 5.296875 -25.804688 6.96875 -27.691406 9.09375 -29.046875 C 11.226562 -30.398438 13.566406 -31.078125 16.109375 -31.078125 C 18.160156 -31.078125 20.066406 -30.648438 21.828125 -29.796875 C 23.585938 -28.941406 24.988281 -27.859375 26.03125 -26.546875 L 26.03125 -27.9375 C 26.03125 -28.75 26.28125 -29.425781 26.78125 -29.96875 C 27.28125 -30.507812 27.9375 -30.78125 28.75 -30.78125 Z M 16.921875 -4.515625 C 18.742188 -4.515625 20.359375 -4.976562 21.765625 -5.90625 C 23.179688 -6.832031 24.285156 -8.109375 25.078125 -9.734375 C 25.867188 -11.359375 26.265625 -13.195312 26.265625 -15.25 C 26.265625 -17.257812 25.867188 -19.070312 25.078125 -20.6875 C 24.285156 -22.3125 23.179688 -23.597656 21.765625 -24.546875 C 20.359375 -25.492188 18.742188 -25.96875 16.921875 -25.96875 C 15.109375 -25.96875 13.492188 -25.503906 12.078125 -24.578125 C 10.671875 -23.648438 9.570312 -22.375 8.78125 -20.75 C 7.988281 -19.125 7.59375 -17.289062 7.59375 -15.25 C 7.59375 -13.195312 7.988281 -11.359375 8.78125 -9.734375 C 9.570312 -8.109375 10.671875 -6.832031 12.078125 -5.90625 C 13.492188 -4.976562 15.109375 -4.515625 16.921875 -4.515625 Z M 16.921875 -4.515625" transform="translate(596.295 525.337)"/></g></g></g><g><g><g><path d="M 18.46875 -1.484375 C 18.664062 -1.484375 18.835938 -1.410156 18.984375 -1.265625 C 19.128906 -1.117188 19.203125 -0.945312 19.203125 -0.75 C 19.203125 -0.519531 19.128906 -0.335938 18.984375 -0.203125 C 18.835938 -0.0664062 18.664062 0 18.46875 0 L 4.453125 0 C 4.253906 0 4.082031 -0.0703125 3.9375 -0.21875 C 3.789062 -0.375 3.71875 -0.550781 3.71875 -0.75 L 3.71875 -25.265625 C 3.71875 -25.460938 3.789062 -25.632812 3.9375 -25.78125 C 4.082031 -25.9375 4.253906 -26.015625 4.453125 -26.015625 L 18.46875 -26.015625 C 18.664062 -26.015625 18.835938 -25.9375 18.984375 -25.78125 C 19.128906 -25.632812 19.203125 -25.460938 19.203125 -25.265625 C 19.203125 -25.046875 19.128906 -24.863281 18.984375 -24.71875 C 18.835938 -24.582031 18.664062 -24.515625 18.46875 -24.515625 L 5.28125 -24.515625 L 5.28125 -14.15625 L 16.796875 -14.15625 C 16.992188 -14.15625 17.164062 -14.078125 17.3125 -13.921875 C 17.457031 -13.773438 17.53125 -13.601562 17.53125 -13.40625 C 17.53125 -13.1875 17.457031 -13.007812 17.3125 -12.875 C 17.164062 -12.738281 16.992188 -12.671875 16.796875 -12.671875 L 5.28125 -12.671875 L 5.28125 -1.484375 Z M 18.46875 -1.484375" transform="translate(96.953 628.782)"/></g></g></g><g><g><g><path d="M 11.515625 -19.140625 C 13.722656 -19.140625 15.382812 -18.488281 16.5 -17.1875 C 17.613281 -15.882812 18.171875 -14.191406 18.171875 -12.109375 L 18.171875 -0.75 C 18.171875 -0.550781 18.09375 -0.375 17.9375 -0.21875 C 17.789062 -0.0703125 17.617188 0 17.421875 0 C 17.203125 0 17.023438 -0.0703125 16.890625 -0.21875 C 16.753906 -0.375 16.6875 -0.550781 16.6875 -0.75 L 16.6875 -11.96875 C 16.6875 -13.644531 16.242188 -15.019531 15.359375 -16.09375 C 14.484375 -17.175781 13.15625 -17.71875 11.375 -17.71875 C 10.28125 -17.71875 9.207031 -17.457031 8.15625 -16.9375 C 7.101562 -16.414062 6.238281 -15.707031 5.5625 -14.8125 C 4.894531 -13.925781 4.5625 -12.976562 4.5625 -11.96875 L 4.5625 -0.75 C 4.5625 -0.550781 4.488281 -0.375 4.34375 -0.21875 C 4.195312 -0.0703125 4.023438 0 3.828125 0 C 3.609375 0 3.425781 -0.0703125 3.28125 -0.21875 C 3.144531 -0.375 3.078125 -0.550781 3.078125 -0.75 L 3.078125 -17.796875 C 3.078125 -17.992188 3.148438 -18.164062 3.296875 -18.3125 C 3.453125 -18.46875 3.628906 -18.546875 3.828125 -18.546875 C 4.046875 -18.546875 4.222656 -18.46875 4.359375 -18.3125 C 4.492188 -18.164062 4.5625 -17.992188 4.5625 -17.796875 L 4.5625 -15.3125 C 5.28125 -16.425781 6.289062 -17.34375 7.59375 -18.0625 C 8.894531 -18.78125 10.203125 -19.140625 11.515625 -19.140625 Z M 11.515625 -19.140625" transform="translate(118.023 628.782)"/></g></g></g><g><g><g><path d="M 11.140625 -19.140625 C 12.210938 -19.140625 13.25 -19.015625 14.25 -18.765625 C 15.25 -18.515625 16.050781 -18.1875 16.65625 -17.78125 C 17.269531 -17.375 17.578125 -16.945312 17.578125 -16.5 C 17.578125 -16.300781 17.507812 -16.125 17.375 -15.96875 C 17.238281 -15.820312 17.070312 -15.75 16.875 -15.75 C 16.644531 -15.75 16.472656 -15.785156 16.359375 -15.859375 C 16.253906 -15.941406 16.101562 -16.082031 15.90625 -16.28125 C 15.582031 -16.644531 15.25 -16.914062 14.90625 -17.09375 C 14.007812 -17.507812 12.742188 -17.71875 11.109375 -17.71875 C 9.691406 -17.71875 8.382812 -17.347656 7.1875 -16.609375 C 5.988281 -15.867188 5.035156 -14.859375 4.328125 -13.578125 C 3.617188 -12.304688 3.265625 -10.914062 3.265625 -9.40625 C 3.265625 -7.8125 3.59375 -6.378906 4.25 -5.109375 C 4.90625 -3.835938 5.832031 -2.84375 7.03125 -2.125 C 8.238281 -1.40625 9.597656 -1.046875 11.109375 -1.046875 C 12.097656 -1.046875 12.878906 -1.128906 13.453125 -1.296875 C 14.023438 -1.472656 14.59375 -1.722656 15.15625 -2.046875 C 15.550781 -2.296875 15.898438 -2.566406 16.203125 -2.859375 C 16.328125 -2.984375 16.445312 -3.085938 16.5625 -3.171875 C 16.6875 -3.265625 16.8125 -3.3125 16.9375 -3.3125 C 17.132812 -3.3125 17.289062 -3.25 17.40625 -3.125 C 17.519531 -3 17.578125 -2.835938 17.578125 -2.640625 C 17.578125 -2.296875 17.289062 -1.878906 16.71875 -1.390625 C 16.144531 -0.910156 15.359375 -0.492188 14.359375 -0.140625 C 13.359375 0.203125 12.238281 0.375 11 0.375 C 9.21875 0.375 7.625 -0.046875 6.21875 -0.890625 C 4.820312 -1.734375 3.734375 -2.894531 2.953125 -4.375 C 2.171875 -5.863281 1.78125 -7.539062 1.78125 -9.40625 C 1.78125 -11.132812 2.171875 -12.738281 2.953125 -14.21875 C 3.734375 -15.707031 4.832031 -16.898438 6.25 -17.796875 C 7.675781 -18.691406 9.304688 -19.140625 11.140625 -19.140625 Z M 11.140625 -19.140625" transform="translate(139.279 628.782)"/></g></g></g><g><g><g><path d="M 20.109375 -9.359375 C 20.109375 -7.523438 19.707031 -5.867188 18.90625 -4.390625 C 18.113281 -2.921875 17.019531 -1.757812 15.625 -0.90625 C 14.226562 -0.0507812 12.675781 0.375 10.96875 0.375 C 9.25 0.375 7.691406 -0.0507812 6.296875 -0.90625 C 4.898438 -1.757812 3.796875 -2.929688 2.984375 -4.421875 C 2.179688 -5.910156 1.78125 -7.554688 1.78125 -9.359375 C 1.78125 -11.191406 2.179688 -12.851562 2.984375 -14.34375 C 3.796875 -15.832031 4.894531 -17.003906 6.28125 -17.859375 C 7.664062 -18.710938 9.226562 -19.140625 10.96875 -19.140625 C 12.675781 -19.140625 14.226562 -18.710938 15.625 -17.859375 C 17.019531 -17.003906 18.113281 -15.832031 18.90625 -14.34375 C 19.707031 -12.851562 20.109375 -11.191406 20.109375 -9.359375 Z M 18.609375 -9.359375 C 18.609375 -10.941406 18.28125 -12.363281 17.625 -13.625 C 16.96875 -14.894531 16.054688 -15.894531 14.890625 -16.625 C 13.734375 -17.351562 12.425781 -17.71875 10.96875 -17.71875 C 9.53125 -17.71875 8.222656 -17.351562 7.046875 -16.625 C 5.867188 -15.894531 4.941406 -14.894531 4.265625 -13.625 C 3.597656 -12.363281 3.265625 -10.941406 3.265625 -9.359375 C 3.265625 -7.796875 3.597656 -6.382812 4.265625 -5.125 C 4.941406 -3.863281 5.867188 -2.867188 7.046875 -2.140625 C 8.222656 -1.410156 9.53125 -1.046875 10.96875 -1.046875 C 12.425781 -1.046875 13.734375 -1.40625 14.890625 -2.125 C 16.054688 -2.84375 16.96875 -3.835938 17.625 -5.109375 C 18.28125 -6.378906 18.609375 -7.796875 18.609375 -9.359375 Z M 18.609375 -9.359375" transform="translate(158.342 628.782)"/></g></g></g><g><g><g><path d="M 11.515625 -19.140625 C 13.722656 -19.140625 15.382812 -18.488281 16.5 -17.1875 C 17.613281 -15.882812 18.171875 -14.191406 18.171875 -12.109375 L 18.171875 -0.75 C 18.171875 -0.550781 18.09375 -0.375 17.9375 -0.21875 C 17.789062 -0.0703125 17.617188 0 17.421875 0 C 17.203125 0 17.023438 -0.0703125 16.890625 -0.21875 C 16.753906 -0.375 16.6875 -0.550781 16.6875 -0.75 L 16.6875 -11.96875 C 16.6875 -13.644531 16.242188 -15.019531 15.359375 -16.09375 C 14.484375 -17.175781 13.15625 -17.71875 11.375 -17.71875 C 10.28125 -17.71875 9.207031 -17.457031 8.15625 -16.9375 C 7.101562 -16.414062 6.238281 -15.707031 5.5625 -14.8125 C 4.894531 -13.925781 4.5625 -12.976562 4.5625 -11.96875 L 4.5625 -0.75 C 4.5625 -0.550781 4.488281 -0.375 4.34375 -0.21875 C 4.195312 -0.0703125 4.023438 0 3.828125 0 C 3.609375 0 3.425781 -0.0703125 3.28125 -0.21875 C 3.144531 -0.375 3.078125 -0.550781 3.078125 -0.75 L 3.078125 -17.796875 C 3.078125 -17.992188 3.148438 -18.164062 3.296875 -18.3125 C 3.453125 -18.46875 3.628906 -18.546875 3.828125 -18.546875 C 4.046875 -18.546875 4.222656 -18.46875 4.359375 -18.3125 C 4.492188 -18.164062 4.5625 -17.992188 4.5625 -17.796875 L 4.5625 -15.3125 C 5.28125 -16.425781 6.289062 -17.34375 7.59375 -18.0625 C 8.894531 -18.78125 10.203125 -19.140625 11.515625 -19.140625 Z M 11.515625 -19.140625" transform="translate(180.23 628.782)"/></g></g></g><g><g><g><path d="M 10 -18.6875 C 10.164062 -18.6875 10.320312 -18.613281 10.46875 -18.46875 C 10.625 -18.320312 10.703125 -18.160156 10.703125 -17.984375 C 10.703125 -17.785156 10.632812 -17.617188 10.5 -17.484375 C 10.363281 -17.347656 10.195312 -17.28125 10 -17.28125 L 5.90625 -17.28125 L 5.90625 -4.046875 C 5.90625 -2.960938 6.097656 -2.238281 6.484375 -1.875 C 6.867188 -1.519531 7.359375 -1.34375 7.953125 -1.34375 C 8.046875 -1.34375 8.1875 -1.363281 8.375 -1.40625 C 8.5625 -1.457031 8.71875 -1.484375 8.84375 -1.484375 C 9.019531 -1.484375 9.164062 -1.414062 9.28125 -1.28125 C 9.40625 -1.144531 9.46875 -0.988281 9.46875 -0.8125 C 9.46875 -0.59375 9.316406 -0.398438 9.015625 -0.234375 C 8.722656 -0.078125 8.378906 0 7.984375 0 C 7.367188 0 6.847656 -0.0390625 6.421875 -0.125 C 6.003906 -0.21875 5.566406 -0.550781 5.109375 -1.125 C 4.648438 -1.707031 4.421875 -2.65625 4.421875 -3.96875 L 4.421875 -17.28125 L 1.375 -17.28125 C 1.195312 -17.28125 1.035156 -17.351562 0.890625 -17.5 C 0.742188 -17.644531 0.671875 -17.804688 0.671875 -17.984375 C 0.671875 -18.179688 0.738281 -18.347656 0.875 -18.484375 C 1.007812 -18.617188 1.175781 -18.6875 1.375 -18.6875 L 4.421875 -18.6875 L 4.421875 -23.40625 C 4.421875 -23.601562 4.492188 -23.773438 4.640625 -23.921875 C 4.796875 -24.078125 4.972656 -24.15625 5.171875 -24.15625 C 5.390625 -24.15625 5.566406 -24.078125 5.703125 -23.921875 C 5.835938 -23.773438 5.90625 -23.601562 5.90625 -23.40625 L 5.90625 -18.6875 Z M 10 -18.6875" transform="translate(201.485 628.782)"/></g></g></g><g><g><g><path d="M 11.484375 -19.140625 C 12.617188 -19.140625 13.1875 -18.851562 13.1875 -18.28125 C 13.1875 -18.0625 13.125 -17.875 13 -17.71875 C 12.875 -17.570312 12.710938 -17.5 12.515625 -17.5 C 12.441406 -17.5 12.265625 -17.550781 11.984375 -17.65625 C 11.703125 -17.769531 11.398438 -17.828125 11.078125 -17.828125 C 10.054688 -17.828125 9.035156 -17.425781 8.015625 -16.625 C 7.003906 -15.820312 6.175781 -14.804688 5.53125 -13.578125 C 4.882812 -12.347656 4.5625 -11.164062 4.5625 -10.03125 L 4.5625 -0.75 C 4.5625 -0.550781 4.488281 -0.375 4.34375 -0.21875 C 4.195312 -0.0703125 4.023438 0 3.828125 0 C 3.609375 0 3.425781 -0.0703125 3.28125 -0.21875 C 3.144531 -0.375 3.078125 -0.550781 3.078125 -0.75 L 3.078125 -17.796875 C 3.078125 -17.992188 3.148438 -18.164062 3.296875 -18.3125 C 3.453125 -18.46875 3.628906 -18.546875 3.828125 -18.546875 C 4.046875 -18.546875 4.222656 -18.46875 4.359375 -18.3125 C 4.492188 -18.164062 4.5625 -17.992188 4.5625 -17.796875 L 4.5625 -13.859375 C 5.132812 -15.367188 6.019531 -16.617188 7.21875 -17.609375 C 8.425781 -18.597656 9.847656 -19.109375 11.484375 -19.140625 Z M 11.484375 -19.140625" transform="translate(213.227 628.782)"/></g></g></g><g><g><g><path d="M 17.765625 -4.453125 C 17.929688 -4.453125 18.078125 -4.382812 18.203125 -4.25 C 18.328125 -4.113281 18.390625 -3.960938 18.390625 -3.796875 C 18.390625 -3.617188 18.34375 -3.46875 18.25 -3.34375 C 17.425781 -2.25 16.40625 -1.351562 15.1875 -0.65625 C 13.976562 0.03125 12.679688 0.375 11.296875 0.375 C 9.441406 0.375 7.796875 -0.0195312 6.359375 -0.8125 C 4.921875 -1.601562 3.796875 -2.726562 2.984375 -4.1875 C 2.179688 -5.65625 1.78125 -7.359375 1.78125 -9.296875 C 1.78125 -11.273438 2.171875 -13.007812 2.953125 -14.5 C 3.734375 -16 4.765625 -17.144531 6.046875 -17.9375 C 7.335938 -18.738281 8.71875 -19.140625 10.1875 -19.140625 C 11.644531 -19.140625 13 -18.820312 14.25 -18.1875 C 15.5 -17.550781 16.519531 -16.601562 17.3125 -15.34375 C 18.101562 -14.082031 18.523438 -12.519531 18.578125 -10.65625 C 18.578125 -10.457031 18.5 -10.28125 18.34375 -10.125 C 18.195312 -9.96875 18.023438 -9.890625 17.828125 -9.890625 L 3.234375 -9.890625 L 3.234375 -9.40625 C 3.234375 -7.863281 3.539062 -6.453125 4.15625 -5.171875 C 4.78125 -3.898438 5.695312 -2.894531 6.90625 -2.15625 C 8.125 -1.414062 9.585938 -1.046875 11.296875 -1.046875 C 12.484375 -1.046875 13.601562 -1.332031 14.65625 -1.90625 C 15.707031 -2.488281 16.53125 -3.226562 17.125 -4.125 C 17.300781 -4.34375 17.515625 -4.453125 17.765625 -4.453125 Z M 10.1875 -17.65625 C 9.269531 -17.65625 8.332031 -17.410156 7.375 -16.921875 C 6.414062 -16.441406 5.570312 -15.722656 4.84375 -14.765625 C 4.113281 -13.816406 3.625 -12.660156 3.375 -11.296875 L 17.0625 -11.296875 L 17.0625 -11.625 C 16.9375 -12.894531 16.53125 -13.976562 15.84375 -14.875 C 15.164062 -15.78125 14.320312 -16.46875 13.3125 -16.9375 C 12.3125 -17.414062 11.269531 -17.65625 10.1875 -17.65625 Z M 10.1875 -17.65625" transform="translate(226.902 628.782)"/></g></g></g><g><g><g><path d="M 17.09375 -18.546875 C 17.3125 -18.546875 17.488281 -18.46875 17.625 -18.3125 C 17.757812 -18.164062 17.828125 -17.992188 17.828125 -17.796875 L 17.828125 -6.984375 C 17.828125 -4.628906 17.164062 -2.835938 15.84375 -1.609375 C 14.519531 -0.390625 12.71875 0.21875 10.4375 0.21875 C 8.15625 0.21875 6.359375 -0.390625 5.046875 -1.609375 C 3.734375 -2.835938 3.078125 -4.628906 3.078125 -6.984375 L 3.078125 -17.796875 C 3.078125 -17.992188 3.148438 -18.164062 3.296875 -18.3125 C 3.453125 -18.46875 3.628906 -18.546875 3.828125 -18.546875 C 4.046875 -18.546875 4.222656 -18.46875 4.359375 -18.3125 C 4.492188 -18.164062 4.5625 -17.992188 4.5625 -17.796875 L 4.5625 -6.984375 C 4.5625 -5.128906 5.082031 -3.695312 6.125 -2.6875 C 7.164062 -1.6875 8.601562 -1.1875 10.4375 -1.1875 C 12.300781 -1.1875 13.75 -1.6875 14.78125 -2.6875 C 15.820312 -3.695312 16.34375 -5.128906 16.34375 -6.984375 L 16.34375 -17.796875 C 16.34375 -17.992188 16.410156 -18.164062 16.546875 -18.3125 C 16.679688 -18.46875 16.863281 -18.546875 17.09375 -18.546875 Z M 17.09375 -18.546875" transform="translate(257.3 628.782)"/></g></g></g><g><g><g><path d="M 24.1875 -18.765625 C 26.320312 -18.765625 27.9375 -18.09375 29.03125 -16.75 C 30.132812 -15.414062 30.6875 -13.6875 30.6875 -11.5625 L 30.6875 -0.75 C 30.6875 -0.550781 30.617188 -0.375 30.484375 -0.21875 C 30.347656 -0.0703125 30.171875 0 29.953125 0 C 29.722656 0 29.539062 -0.0703125 29.40625 -0.21875 C 29.269531 -0.375 29.203125 -0.550781 29.203125 -0.75 L 29.203125 -11.40625 C 29.203125 -13.164062 28.773438 -14.597656 27.921875 -15.703125 C 27.066406 -16.804688 25.773438 -17.359375 24.046875 -17.359375 C 22.972656 -17.359375 21.921875 -17.082031 20.890625 -16.53125 C 19.867188 -15.988281 19.035156 -15.265625 18.390625 -14.359375 C 17.742188 -13.453125 17.421875 -12.46875 17.421875 -11.40625 L 17.421875 -0.75 C 17.421875 -0.550781 17.351562 -0.375 17.21875 -0.21875 C 17.082031 -0.0703125 16.90625 0 16.6875 0 C 16.457031 0 16.273438 -0.0703125 16.140625 -0.21875 C 16.003906 -0.375 15.9375 -0.550781 15.9375 -0.75 L 15.9375 -11.59375 C 15.9375 -13.300781 15.523438 -14.6875 14.703125 -15.75 C 13.890625 -16.820312 12.65625 -17.359375 11 -17.359375 C 9.957031 -17.359375 8.941406 -17.097656 7.953125 -16.578125 C 6.960938 -16.054688 6.148438 -15.347656 5.515625 -14.453125 C 4.878906 -13.554688 4.5625 -12.601562 4.5625 -11.59375 L 4.5625 -0.75 C 4.5625 -0.550781 4.488281 -0.375 4.34375 -0.21875 C 4.195312 -0.0703125 4.023438 0 3.828125 0 C 3.609375 0 3.425781 -0.0703125 3.28125 -0.21875 C 3.144531 -0.375 3.078125 -0.550781 3.078125 -0.75 L 3.078125 -17.796875 C 3.078125 -17.992188 3.148438 -18.164062 3.296875 -18.3125 C 3.453125 -18.46875 3.628906 -18.546875 3.828125 -18.546875 C 4.046875 -18.546875 4.222656 -18.46875 4.359375 -18.3125 C 4.492188 -18.164062 4.5625 -17.992188 4.5625 -17.796875 L 4.5625 -15.203125 C 5.28125 -16.234375 6.21875 -17.082031 7.375 -17.75 C 8.53125 -18.425781 9.738281 -18.765625 11 -18.765625 C 12.363281 -18.765625 13.578125 -18.414062 14.640625 -17.71875 C 15.703125 -17.03125 16.484375 -16.015625 16.984375 -14.671875 C 17.503906 -15.816406 18.488281 -16.785156 19.9375 -17.578125 C 21.382812 -18.367188 22.800781 -18.765625 24.1875 -18.765625 Z M 24.1875 -18.765625" transform="translate(278.22 628.782)"/></g></g></g><g><g><g><path d="M 18.28125 -18.546875 C 18.5 -18.546875 18.675781 -18.46875 18.8125 -18.3125 C 18.957031 -18.164062 19.03125 -17.992188 19.03125 -17.796875 L 19.03125 -0.75 C 19.03125 -0.550781 18.953125 -0.375 18.796875 -0.21875 C 18.648438 -0.0703125 18.476562 0 18.28125 0 C 18.0625 0 17.878906 -0.0703125 17.734375 -0.21875 C 17.597656 -0.375 17.53125 -0.550781 17.53125 -0.75 L 17.53125 -4.09375 C 16.914062 -2.820312 15.960938 -1.757812 14.671875 -0.90625 C 13.390625 -0.0507812 11.96875 0.375 10.40625 0.375 C 8.769531 0.375 7.296875 -0.0507812 5.984375 -0.90625 C 4.671875 -1.757812 3.640625 -2.9375 2.890625 -4.4375 C 2.148438 -5.9375 1.78125 -7.613281 1.78125 -9.46875 C 1.78125 -11.300781 2.15625 -12.953125 2.90625 -14.421875 C 3.664062 -15.898438 4.703125 -17.054688 6.015625 -17.890625 C 7.328125 -18.722656 8.789062 -19.140625 10.40625 -19.140625 C 12.007812 -19.140625 13.457031 -18.71875 14.75 -17.875 C 16.039062 -17.03125 16.96875 -15.898438 17.53125 -14.484375 L 17.53125 -17.796875 C 17.53125 -17.992188 17.597656 -18.164062 17.734375 -18.3125 C 17.878906 -18.46875 18.0625 -18.546875 18.28125 -18.546875 Z M 10.484375 -1.046875 C 11.835938 -1.046875 13.066406 -1.410156 14.171875 -2.140625 C 15.273438 -2.867188 16.132812 -3.875 16.75 -5.15625 C 17.375 -6.445312 17.6875 -7.882812 17.6875 -9.46875 C 17.6875 -10.976562 17.375 -12.363281 16.75 -13.625 C 16.132812 -14.894531 15.273438 -15.894531 14.171875 -16.625 C 13.066406 -17.351562 11.835938 -17.71875 10.484375 -17.71875 C 9.117188 -17.71875 7.882812 -17.363281 6.78125 -16.65625 C 5.675781 -15.957031 4.8125 -14.984375 4.1875 -13.734375 C 3.570312 -12.484375 3.265625 -11.0625 3.265625 -9.46875 C 3.265625 -7.882812 3.570312 -6.445312 4.1875 -5.15625 C 4.8125 -3.875 5.664062 -2.867188 6.75 -2.140625 C 7.84375 -1.410156 9.085938 -1.046875 10.484375 -1.046875 Z M 10.484375 -1.046875" transform="translate(312 628.782)"/></g></g></g><g><g><g><path d="M 10.59375 -18.3125 C 10.789062 -18.3125 10.957031 -18.242188 11.09375 -18.109375 C 11.226562 -17.972656 11.296875 -17.804688 11.296875 -17.609375 C 11.296875 -17.410156 11.226562 -17.242188 11.09375 -17.109375 C 10.957031 -16.972656 10.789062 -16.90625 10.59375 -16.90625 L 6.203125 -16.90625 L 6.203125 -0.75 C 6.203125 -0.550781 6.128906 -0.375 5.984375 -0.21875 C 5.835938 -0.0703125 5.664062 0 5.46875 0 C 5.238281 0 5.054688 -0.0703125 4.921875 -0.21875 C 4.785156 -0.375 4.71875 -0.550781 4.71875 -0.75 L 4.71875 -16.90625 L 1.75 -16.90625 C 1.570312 -16.90625 1.410156 -16.976562 1.265625 -17.125 C 1.117188 -17.28125 1.046875 -17.441406 1.046875 -17.609375 C 1.046875 -17.835938 1.113281 -18.007812 1.25 -18.125 C 1.382812 -18.25 1.550781 -18.3125 1.75 -18.3125 L 4.71875 -18.3125 L 4.71875 -22.84375 C 4.71875 -24.3125 5.109375 -25.421875 5.890625 -26.171875 C 6.671875 -26.929688 7.664062 -27.3125 8.875 -27.3125 C 9.5 -27.3125 10.085938 -27.226562 10.640625 -27.0625 C 11.203125 -26.90625 11.484375 -26.640625 11.484375 -26.265625 C 11.484375 -26.066406 11.40625 -25.894531 11.25 -25.75 C 11.101562 -25.601562 10.945312 -25.53125 10.78125 -25.53125 C 10.582031 -25.53125 10.320312 -25.59375 10 -25.71875 C 9.425781 -25.882812 9.003906 -25.96875 8.734375 -25.96875 C 7.960938 -25.96875 7.347656 -25.707031 6.890625 -25.1875 C 6.429688 -24.664062 6.203125 -23.882812 6.203125 -22.84375 L 6.203125 -18.3125 Z M 10.59375 -18.3125" transform="translate(344.143 628.782)"/></g></g></g><g><g><g><path d="M 20.109375 -9.359375 C 20.109375 -7.523438 19.707031 -5.867188 18.90625 -4.390625 C 18.113281 -2.921875 17.019531 -1.757812 15.625 -0.90625 C 14.226562 -0.0507812 12.675781 0.375 10.96875 0.375 C 9.25 0.375 7.691406 -0.0507812 6.296875 -0.90625 C 4.898438 -1.757812 3.796875 -2.929688 2.984375 -4.421875 C 2.179688 -5.910156 1.78125 -7.554688 1.78125 -9.359375 C 1.78125 -11.191406 2.179688 -12.851562 2.984375 -14.34375 C 3.796875 -15.832031 4.894531 -17.003906 6.28125 -17.859375 C 7.664062 -18.710938 9.226562 -19.140625 10.96875 -19.140625 C 12.675781 -19.140625 14.226562 -18.710938 15.625 -17.859375 C 17.019531 -17.003906 18.113281 -15.832031 18.90625 -14.34375 C 19.707031 -12.851562 20.109375 -11.191406 20.109375 -9.359375 Z M 18.609375 -9.359375 C 18.609375 -10.941406 18.28125 -12.363281 17.625 -13.625 C 16.96875 -14.894531 16.054688 -15.894531 14.890625 -16.625 C 13.734375 -17.351562 12.425781 -17.71875 10.96875 -17.71875 C 9.53125 -17.71875 8.222656 -17.351562 7.046875 -16.625 C 5.867188 -15.894531 4.941406 -14.894531 4.265625 -13.625 C 3.597656 -12.363281 3.265625 -10.941406 3.265625 -9.359375 C 3.265625 -7.796875 3.597656 -6.382812 4.265625 -5.125 C 4.941406 -3.863281 5.867188 -2.867188 7.046875 -2.140625 C 8.222656 -1.410156 9.53125 -1.046875 10.96875 -1.046875 C 12.425781 -1.046875 13.734375 -1.40625 14.890625 -2.125 C 16.054688 -2.84375 16.96875 -3.835938 17.625 -5.109375 C 18.28125 -6.378906 18.609375 -7.796875 18.609375 -9.359375 Z M 18.609375 -9.359375" transform="translate(356.48 628.782)"/></g></g></g><g><g><g><path d="M 11.484375 -19.140625 C 12.617188 -19.140625 13.1875 -18.851562 13.1875 -18.28125 C 13.1875 -18.0625 13.125 -17.875 13 -17.71875 C 12.875 -17.570312 12.710938 -17.5 12.515625 -17.5 C 12.441406 -17.5 12.265625 -17.550781 11.984375 -17.65625 C 11.703125 -17.769531 11.398438 -17.828125 11.078125 -17.828125 C 10.054688 -17.828125 9.035156 -17.425781 8.015625 -16.625 C 7.003906 -15.820312 6.175781 -14.804688 5.53125 -13.578125 C 4.882812 -12.347656 4.5625 -11.164062 4.5625 -10.03125 L 4.5625 -0.75 C 4.5625 -0.550781 4.488281 -0.375 4.34375 -0.21875 C 4.195312 -0.0703125 4.023438 0 3.828125 0 C 3.609375 0 3.425781 -0.0703125 3.28125 -0.21875 C 3.144531 -0.375 3.078125 -0.550781 3.078125 -0.75 L 3.078125 -17.796875 C 3.078125 -17.992188 3.148438 -18.164062 3.296875 -18.3125 C 3.453125 -18.46875 3.628906 -18.546875 3.828125 -18.546875 C 4.046875 -18.546875 4.222656 -18.46875 4.359375 -18.3125 C 4.492188 -18.164062 4.5625 -17.992188 4.5625 -17.796875 L 4.5625 -13.859375 C 5.132812 -15.367188 6.019531 -16.617188 7.21875 -17.609375 C 8.425781 -18.597656 9.847656 -19.109375 11.484375 -19.140625 Z M 11.484375 -19.140625" transform="translate(378.367 628.782)"/></g></g></g><g><g><g><path d="M 24.1875 -18.765625 C 26.320312 -18.765625 27.9375 -18.09375 29.03125 -16.75 C 30.132812 -15.414062 30.6875 -13.6875 30.6875 -11.5625 L 30.6875 -0.75 C 30.6875 -0.550781 30.617188 -0.375 30.484375 -0.21875 C 30.347656 -0.0703125 30.171875 0 29.953125 0 C 29.722656 0 29.539062 -0.0703125 29.40625 -0.21875 C 29.269531 -0.375 29.203125 -0.550781 29.203125 -0.75 L 29.203125 -11.40625 C 29.203125 -13.164062 28.773438 -14.597656 27.921875 -15.703125 C 27.066406 -16.804688 25.773438 -17.359375 24.046875 -17.359375 C 22.972656 -17.359375 21.921875 -17.082031 20.890625 -16.53125 C 19.867188 -15.988281 19.035156 -15.265625 18.390625 -14.359375 C 17.742188 -13.453125 17.421875 -12.46875 17.421875 -11.40625 L 17.421875 -0.75 C 17.421875 -0.550781 17.351562 -0.375 17.21875 -0.21875 C 17.082031 -0.0703125 16.90625 0 16.6875 0 C 16.457031 0 16.273438 -0.0703125 16.140625 -0.21875 C 16.003906 -0.375 15.9375 -0.550781 15.9375 -0.75 L 15.9375 -11.59375 C 15.9375 -13.300781 15.523438 -14.6875 14.703125 -15.75 C 13.890625 -16.820312 12.65625 -17.359375 11 -17.359375 C 9.957031 -17.359375 8.941406 -17.097656 7.953125 -16.578125 C 6.960938 -16.054688 6.148438 -15.347656 5.515625 -14.453125 C 4.878906 -13.554688 4.5625 -12.601562 4.5625 -11.59375 L 4.5625 -0.75 C 4.5625 -0.550781 4.488281 -0.375 4.34375 -0.21875 C 4.195312 -0.0703125 4.023438 0 3.828125 0 C 3.609375 0 3.425781 -0.0703125 3.28125 -0.21875 C 3.144531 -0.375 3.078125 -0.550781 3.078125 -0.75 L 3.078125 -17.796875 C 3.078125 -17.992188 3.148438 -18.164062 3.296875 -18.3125 C 3.453125 -18.46875 3.628906 -18.546875 3.828125 -18.546875 C 4.046875 -18.546875 4.222656 -18.46875 4.359375 -18.3125 C 4.492188 -18.164062 4.5625 -17.992188 4.5625 -17.796875 L 4.5625 -15.203125 C 5.28125 -16.234375 6.21875 -17.082031 7.375 -17.75 C 8.53125 -18.425781 9.738281 -18.765625 11 -18.765625 C 12.363281 -18.765625 13.578125 -18.414062 14.640625 -17.71875 C 15.703125 -17.03125 16.484375 -16.015625 16.984375 -14.671875 C 17.503906 -15.816406 18.488281 -16.785156 19.9375 -17.578125 C 21.382812 -18.367188 22.800781 -18.765625 24.1875 -18.765625 Z M 24.1875 -18.765625" transform="translate(392.042 628.782)"/></g></g></g><g><g><g><path d="M 18.28125 -18.546875 C 18.5 -18.546875 18.675781 -18.46875 18.8125 -18.3125 C 18.957031 -18.164062 19.03125 -17.992188 19.03125 -17.796875 L 19.03125 -0.75 C 19.03125 -0.550781 18.953125 -0.375 18.796875 -0.21875 C 18.648438 -0.0703125 18.476562 0 18.28125 0 C 18.0625 0 17.878906 -0.0703125 17.734375 -0.21875 C 17.597656 -0.375 17.53125 -0.550781 17.53125 -0.75 L 17.53125 -4.09375 C 16.914062 -2.820312 15.960938 -1.757812 14.671875 -0.90625 C 13.390625 -0.0507812 11.96875 0.375 10.40625 0.375 C 8.769531 0.375 7.296875 -0.0507812 5.984375 -0.90625 C 4.671875 -1.757812 3.640625 -2.9375 2.890625 -4.4375 C 2.148438 -5.9375 1.78125 -7.613281 1.78125 -9.46875 C 1.78125 -11.300781 2.15625 -12.953125 2.90625 -14.421875 C 3.664062 -15.898438 4.703125 -17.054688 6.015625 -17.890625 C 7.328125 -18.722656 8.789062 -19.140625 10.40625 -19.140625 C 12.007812 -19.140625 13.457031 -18.71875 14.75 -17.875 C 16.039062 -17.03125 16.96875 -15.898438 17.53125 -14.484375 L 17.53125 -17.796875 C 17.53125 -17.992188 17.597656 -18.164062 17.734375 -18.3125 C 17.878906 -18.46875 18.0625 -18.546875 18.28125 -18.546875 Z M 10.484375 -1.046875 C 11.835938 -1.046875 13.066406 -1.410156 14.171875 -2.140625 C 15.273438 -2.867188 16.132812 -3.875 16.75 -5.15625 C 17.375 -6.445312 17.6875 -7.882812 17.6875 -9.46875 C 17.6875 -10.976562 17.375 -12.363281 16.75 -13.625 C 16.132812 -14.894531 15.273438 -15.894531 14.171875 -16.625 C 13.066406 -17.351562 11.835938 -17.71875 10.484375 -17.71875 C 9.117188 -17.71875 7.882812 -17.363281 6.78125 -16.65625 C 5.675781 -15.957031 4.8125 -14.984375 4.1875 -13.734375 C 3.570312 -12.484375 3.265625 -11.0625 3.265625 -9.46875 C 3.265625 -7.882812 3.570312 -6.445312 4.1875 -5.15625 C 4.8125 -3.875 5.664062 -2.867188 6.75 -2.140625 C 7.84375 -1.410156 9.085938 -1.046875 10.484375 -1.046875 Z M 10.484375 -1.046875" transform="translate(425.821 628.782)"/></g></g></g><g><g><g><path d="M 18.28125 -27.5 C 18.5 -27.5 18.675781 -27.421875 18.8125 -27.265625 C 18.957031 -27.117188 19.03125 -26.945312 19.03125 -26.75 L 19.03125 -0.75 C 19.03125 -0.550781 18.953125 -0.375 18.796875 -0.21875 C 18.648438 -0.0703125 18.476562 0 18.28125 0 C 18.0625 0 17.878906 -0.0703125 17.734375 -0.21875 C 17.597656 -0.375 17.53125 -0.550781 17.53125 -0.75 L 17.53125 -4.265625 C 16.9375 -2.953125 15.992188 -1.847656 14.703125 -0.953125 C 13.421875 -0.0664062 11.988281 0.375 10.40625 0.375 C 8.789062 0.375 7.328125 -0.0507812 6.015625 -0.90625 C 4.703125 -1.757812 3.664062 -2.929688 2.90625 -4.421875 C 2.15625 -5.910156 1.78125 -7.570312 1.78125 -9.40625 C 1.78125 -11.238281 2.15625 -12.894531 2.90625 -14.375 C 3.664062 -15.863281 4.703125 -17.03125 6.015625 -17.875 C 7.328125 -18.71875 8.789062 -19.140625 10.40625 -19.140625 C 11.9375 -19.140625 13.359375 -18.703125 14.671875 -17.828125 C 15.984375 -16.960938 16.9375 -15.835938 17.53125 -14.453125 L 17.53125 -26.75 C 17.53125 -26.945312 17.597656 -27.117188 17.734375 -27.265625 C 17.878906 -27.421875 18.0625 -27.5 18.28125 -27.5 Z M 10.484375 -1.046875 C 11.867188 -1.046875 13.101562 -1.40625 14.1875 -2.125 C 15.28125 -2.84375 16.132812 -3.835938 16.75 -5.109375 C 17.375 -6.378906 17.6875 -7.8125 17.6875 -9.40625 C 17.6875 -10.988281 17.375 -12.410156 16.75 -13.671875 C 16.132812 -14.929688 15.273438 -15.921875 14.171875 -16.640625 C 13.066406 -17.359375 11.835938 -17.71875 10.484375 -17.71875 C 9.140625 -17.71875 7.914062 -17.359375 6.8125 -16.640625 C 5.71875 -15.921875 4.851562 -14.921875 4.21875 -13.640625 C 3.582031 -12.367188 3.265625 -10.957031 3.265625 -9.40625 C 3.265625 -7.8125 3.582031 -6.382812 4.21875 -5.125 C 4.851562 -3.863281 5.710938 -2.867188 6.796875 -2.140625 C 7.890625 -1.410156 9.117188 -1.046875 10.484375 -1.046875 Z M 10.484375 -1.046875" transform="translate(457.965 628.782)"/></g></g></g><g><g><g><path d="M 17.765625 -4.453125 C 17.929688 -4.453125 18.078125 -4.382812 18.203125 -4.25 C 18.328125 -4.113281 18.390625 -3.960938 18.390625 -3.796875 C 18.390625 -3.617188 18.34375 -3.46875 18.25 -3.34375 C 17.425781 -2.25 16.40625 -1.351562 15.1875 -0.65625 C 13.976562 0.03125 12.679688 0.375 11.296875 0.375 C 9.441406 0.375 7.796875 -0.0195312 6.359375 -0.8125 C 4.921875 -1.601562 3.796875 -2.726562 2.984375 -4.1875 C 2.179688 -5.65625 1.78125 -7.359375 1.78125 -9.296875 C 1.78125 -11.273438 2.171875 -13.007812 2.953125 -14.5 C 3.734375 -16 4.765625 -17.144531 6.046875 -17.9375 C 7.335938 -18.738281 8.71875 -19.140625 10.1875 -19.140625 C 11.644531 -19.140625 13 -18.820312 14.25 -18.1875 C 15.5 -17.550781 16.519531 -16.601562 17.3125 -15.34375 C 18.101562 -14.082031 18.523438 -12.519531 18.578125 -10.65625 C 18.578125 -10.457031 18.5 -10.28125 18.34375 -10.125 C 18.195312 -9.96875 18.023438 -9.890625 17.828125 -9.890625 L 3.234375 -9.890625 L 3.234375 -9.40625 C 3.234375 -7.863281 3.539062 -6.453125 4.15625 -5.171875 C 4.78125 -3.898438 5.695312 -2.894531 6.90625 -2.15625 C 8.125 -1.414062 9.585938 -1.046875 11.296875 -1.046875 C 12.484375 -1.046875 13.601562 -1.332031 14.65625 -1.90625 C 15.707031 -2.488281 16.53125 -3.226562 17.125 -4.125 C 17.300781 -4.34375 17.515625 -4.453125 17.765625 -4.453125 Z M 10.1875 -17.65625 C 9.269531 -17.65625 8.332031 -17.410156 7.375 -16.921875 C 6.414062 -16.441406 5.570312 -15.722656 4.84375 -14.765625 C 4.113281 -13.816406 3.625 -12.660156 3.375 -11.296875 L 17.0625 -11.296875 L 17.0625 -11.625 C 16.9375 -12.894531 16.53125 -13.976562 15.84375 -14.875 C 15.164062 -15.78125 14.320312 -16.46875 13.3125 -16.9375 C 12.3125 -17.414062 11.269531 -17.65625 10.1875 -17.65625 Z M 10.1875 -17.65625" transform="translate(480.075 628.782)"/></g></g></g><g><g><g><path d="M 2.046875 -2.96875 C 1.867188 -3.238281 1.78125 -3.472656 1.78125 -3.671875 C 1.78125 -3.847656 1.878906 -4.007812 2.078125 -4.15625 C 2.203125 -4.28125 2.351562 -4.34375 2.53125 -4.34375 C 2.769531 -4.34375 2.96875 -4.242188 3.125 -4.046875 C 4.5625 -1.992188 6.566406 -0.96875 9.140625 -0.96875 C 10.453125 -0.96875 11.601562 -1.296875 12.59375 -1.953125 C 13.582031 -2.609375 14.078125 -3.492188 14.078125 -4.609375 C 14.078125 -5.742188 13.644531 -6.597656 12.78125 -7.171875 C 11.914062 -7.742188 10.726562 -8.210938 9.21875 -8.578125 C 7.207031 -9.078125 5.625 -9.738281 4.46875 -10.5625 C 3.320312 -11.394531 2.75 -12.566406 2.75 -14.078125 C 2.75 -15.546875 3.332031 -16.753906 4.5 -17.703125 C 5.664062 -18.660156 7.160156 -19.140625 8.984375 -19.140625 C 10.003906 -19.140625 11.015625 -18.941406 12.015625 -18.546875 C 13.023438 -18.148438 13.9375 -17.515625 14.75 -16.640625 C 14.925781 -16.492188 15.015625 -16.320312 15.015625 -16.125 C 15.015625 -15.90625 14.925781 -15.707031 14.75 -15.53125 C 14.550781 -15.425781 14.390625 -15.375 14.265625 -15.375 C 14.097656 -15.375 13.953125 -15.453125 13.828125 -15.609375 C 12.535156 -17.015625 10.875 -17.71875 8.84375 -17.71875 C 7.53125 -17.71875 6.421875 -17.394531 5.515625 -16.75 C 4.609375 -16.113281 4.15625 -15.222656 4.15625 -14.078125 C 4.226562 -13.015625 4.71875 -12.191406 5.625 -11.609375 C 6.53125 -11.023438 7.863281 -10.507812 9.625 -10.0625 C 10.882812 -9.75 11.929688 -9.398438 12.765625 -9.015625 C 13.597656 -8.628906 14.257812 -8.085938 14.75 -7.390625 C 15.25 -6.703125 15.5 -5.800781 15.5 -4.6875 C 15.5 -3.125 14.894531 -1.890625 13.6875 -0.984375 C 12.488281 -0.078125 10.921875 0.375 8.984375 0.375 C 6.160156 0.375 3.847656 -0.738281 2.046875 -2.96875 Z M 2.046875 -2.96875" transform="translate(510.472 628.782)"/></g></g></g><g><g><g><path d="M 17.765625 -4.453125 C 17.929688 -4.453125 18.078125 -4.382812 18.203125 -4.25 C 18.328125 -4.113281 18.390625 -3.960938 18.390625 -3.796875 C 18.390625 -3.617188 18.34375 -3.46875 18.25 -3.34375 C 17.425781 -2.25 16.40625 -1.351562 15.1875 -0.65625 C 13.976562 0.03125 12.679688 0.375 11.296875 0.375 C 9.441406 0.375 7.796875 -0.0195312 6.359375 -0.8125 C 4.921875 -1.601562 3.796875 -2.726562 2.984375 -4.1875 C 2.179688 -5.65625 1.78125 -7.359375 1.78125 -9.296875 C 1.78125 -11.273438 2.171875 -13.007812 2.953125 -14.5 C 3.734375 -16 4.765625 -17.144531 6.046875 -17.9375 C 7.335938 -18.738281 8.71875 -19.140625 10.1875 -19.140625 C 11.644531 -19.140625 13 -18.820312 14.25 -18.1875 C 15.5 -17.550781 16.519531 -16.601562 17.3125 -15.34375 C 18.101562 -14.082031 18.523438 -12.519531 18.578125 -10.65625 C 18.578125 -10.457031 18.5 -10.28125 18.34375 -10.125 C 18.195312 -9.96875 18.023438 -9.890625 17.828125 -9.890625 L 3.234375 -9.890625 L 3.234375 -9.40625 C 3.234375 -7.863281 3.539062 -6.453125 4.15625 -5.171875 C 4.78125 -3.898438 5.695312 -2.894531 6.90625 -2.15625 C 8.125 -1.414062 9.585938 -1.046875 11.296875 -1.046875 C 12.484375 -1.046875 13.601562 -1.332031 14.65625 -1.90625 C 15.707031 -2.488281 16.53125 -3.226562 17.125 -4.125 C 17.300781 -4.34375 17.515625 -4.453125 17.765625 -4.453125 Z M 10.1875 -17.65625 C 9.269531 -17.65625 8.332031 -17.410156 7.375 -16.921875 C 6.414062 -16.441406 5.570312 -15.722656 4.84375 -14.765625 C 4.113281 -13.816406 3.625 -12.660156 3.375 -11.296875 L 17.0625 -11.296875 L 17.0625 -11.625 C 16.9375 -12.894531 16.53125 -13.976562 15.84375 -14.875 C 15.164062 -15.78125 14.320312 -16.46875 13.3125 -16.9375 C 12.3125 -17.414062 11.269531 -17.65625 10.1875 -17.65625 Z M 10.1875 -17.65625" transform="translate(527.751 628.782)"/></g></g></g><g><g><g><path d="M 11.484375 -19.140625 C 12.617188 -19.140625 13.1875 -18.851562 13.1875 -18.28125 C 13.1875 -18.0625 13.125 -17.875 13 -17.71875 C 12.875 -17.570312 12.710938 -17.5 12.515625 -17.5 C 12.441406 -17.5 12.265625 -17.550781 11.984375 -17.65625 C 11.703125 -17.769531 11.398438 -17.828125 11.078125 -17.828125 C 10.054688 -17.828125 9.035156 -17.425781 8.015625 -16.625 C 7.003906 -15.820312 6.175781 -14.804688 5.53125 -13.578125 C 4.882812 -12.347656 4.5625 -11.164062 4.5625 -10.03125 L 4.5625 -0.75 C 4.5625 -0.550781 4.488281 -0.375 4.34375 -0.21875 C 4.195312 -0.0703125 4.023438 0 3.828125 0 C 3.609375 0 3.425781 -0.0703125 3.28125 -0.21875 C 3.144531 -0.375 3.078125 -0.550781 3.078125 -0.75 L 3.078125 -17.796875 C 3.078125 -17.992188 3.148438 -18.164062 3.296875 -18.3125 C 3.453125 -18.46875 3.628906 -18.546875 3.828125 -18.546875 C 4.046875 -18.546875 4.222656 -18.46875 4.359375 -18.3125 C 4.492188 -18.164062 4.5625 -17.992188 4.5625 -17.796875 L 4.5625 -13.859375 C 5.132812 -15.367188 6.019531 -16.617188 7.21875 -17.609375 C 8.425781 -18.597656 9.847656 -19.109375 11.484375 -19.140625 Z M 11.484375 -19.140625" transform="translate(548.115 628.782)"/></g></g></g><g><g><g><path d="M 18.28125 -18.546875 C 18.5 -18.546875 18.675781 -18.46875 18.8125 -18.3125 C 18.957031 -18.164062 19.03125 -17.992188 19.03125 -17.796875 L 19.03125 -0.75 C 19.03125 -0.550781 18.953125 -0.375 18.796875 -0.21875 C 18.648438 -0.0703125 18.476562 0 18.28125 0 C 18.0625 0 17.878906 -0.0703125 17.734375 -0.21875 C 17.597656 -0.375 17.53125 -0.550781 17.53125 -0.75 L 17.53125 -4.09375 C 16.914062 -2.820312 15.960938 -1.757812 14.671875 -0.90625 C 13.390625 -0.0507812 11.96875 0.375 10.40625 0.375 C 8.769531 0.375 7.296875 -0.0507812 5.984375 -0.90625 C 4.671875 -1.757812 3.640625 -2.9375 2.890625 -4.4375 C 2.148438 -5.9375 1.78125 -7.613281 1.78125 -9.46875 C 1.78125 -11.300781 2.15625 -12.953125 2.90625 -14.421875 C 3.664062 -15.898438 4.703125 -17.054688 6.015625 -17.890625 C 7.328125 -18.722656 8.789062 -19.140625 10.40625 -19.140625 C 12.007812 -19.140625 13.457031 -18.71875 14.75 -17.875 C 16.039062 -17.03125 16.96875 -15.898438 17.53125 -14.484375 L 17.53125 -17.796875 C 17.53125 -17.992188 17.597656 -18.164062 17.734375 -18.3125 C 17.878906 -18.46875 18.0625 -18.546875 18.28125 -18.546875 Z M 10.484375 -1.046875 C 11.835938 -1.046875 13.066406 -1.410156 14.171875 -2.140625 C 15.273438 -2.867188 16.132812 -3.875 16.75 -5.15625 C 17.375 -6.445312 17.6875 -7.882812 17.6875 -9.46875 C 17.6875 -10.976562 17.375 -12.363281 16.75 -13.625 C 16.132812 -14.894531 15.273438 -15.894531 14.171875 -16.625 C 13.066406 -17.351562 11.835938 -17.71875 10.484375 -17.71875 C 9.117188 -17.71875 7.882812 -17.363281 6.78125 -16.65625 C 5.675781 -15.957031 4.8125 -14.984375 4.1875 -13.734375 C 3.570312 -12.484375 3.265625 -11.0625 3.265625 -9.46875 C 3.265625 -7.882812 3.570312 -6.445312 4.1875 -5.15625 C 4.8125 -3.875 5.664062 -2.867188 6.75 -2.140625 C 7.84375 -1.410156 9.085938 -1.046875 10.484375 -1.046875 Z M 10.484375 -1.046875" transform="translate(571.823 628.782)"/></g></g></g><g><g><g><path d="M -0.03125 7.359375 C -0.257812 7.359375 -0.4375 7.296875 -0.5625 7.171875 C -0.6875 7.046875 -0.75 6.882812 -0.75 6.6875 L -0.75 6.609375 C -0.75 6.441406 -0.6875 6.285156 -0.5625 6.140625 C -0.4375 6.003906 -0.273438 5.925781 -0.078125 5.90625 C 0.890625 5.757812 1.738281 5.375 2.46875 4.75 C 3.195312 4.132812 3.5625 3.269531 3.5625 2.15625 L 3.5625 -17.828125 C 3.5625 -18.023438 3.628906 -18.195312 3.765625 -18.34375 C 3.898438 -18.5 4.082031 -18.578125 4.3125 -18.578125 C 4.53125 -18.578125 4.707031 -18.5 4.84375 -18.34375 C 4.976562 -18.195312 5.046875 -18.023438 5.046875 -17.828125 L 5.046875 2.15625 C 5.046875 3.195312 4.773438 4.113281 4.234375 4.90625 C 3.691406 5.695312 3.023438 6.300781 2.234375 6.71875 C 1.441406 7.144531 0.6875 7.359375 -0.03125 7.359375 Z M 4.3125 -21.703125 C 3.914062 -21.703125 3.597656 -21.8125 3.359375 -22.03125 C 3.128906 -22.257812 3.015625 -22.546875 3.015625 -22.890625 L 3.015625 -23.1875 C 3.015625 -23.53125 3.140625 -23.8125 3.390625 -24.03125 C 3.640625 -24.257812 3.960938 -24.375 4.359375 -24.375 C 4.703125 -24.375 4.988281 -24.257812 5.21875 -24.03125 C 5.457031 -23.8125 5.578125 -23.53125 5.578125 -23.1875 L 5.578125 -22.890625 C 5.578125 -22.546875 5.457031 -22.257812 5.21875 -22.03125 C 4.988281 -21.8125 4.6875 -21.703125 4.3125 -21.703125 Z M 4.3125 -21.703125" transform="translate(593.934 628.782)"/></g></g></g><g><g><g><path d="M 17.09375 -18.546875 C 17.3125 -18.546875 17.488281 -18.46875 17.625 -18.3125 C 17.757812 -18.164062 17.828125 -17.992188 17.828125 -17.796875 L 17.828125 -6.984375 C 17.828125 -4.628906 17.164062 -2.835938 15.84375 -1.609375 C 14.519531 -0.390625 12.71875 0.21875 10.4375 0.21875 C 8.15625 0.21875 6.359375 -0.390625 5.046875 -1.609375 C 3.734375 -2.835938 3.078125 -4.628906 3.078125 -6.984375 L 3.078125 -17.796875 C 3.078125 -17.992188 3.148438 -18.164062 3.296875 -18.3125 C 3.453125 -18.46875 3.628906 -18.546875 3.828125 -18.546875 C 4.046875 -18.546875 4.222656 -18.46875 4.359375 -18.3125 C 4.492188 -18.164062 4.5625 -17.992188 4.5625 -17.796875 L 4.5625 -6.984375 C 4.5625 -5.128906 5.082031 -3.695312 6.125 -2.6875 C 7.164062 -1.6875 8.601562 -1.1875 10.4375 -1.1875 C 12.300781 -1.1875 13.75 -1.6875 14.78125 -2.6875 C 15.820312 -3.695312 16.34375 -5.128906 16.34375 -6.984375 L 16.34375 -17.796875 C 16.34375 -17.992188 16.410156 -18.164062 16.546875 -18.3125 C 16.679688 -18.46875 16.863281 -18.546875 17.09375 -18.546875 Z M 17.09375 -18.546875" transform="translate(603.893 628.782)"/></g></g></g><g><g><g><path d="M 18.28125 -27.5 C 18.5 -27.5 18.675781 -27.421875 18.8125 -27.265625 C 18.957031 -27.117188 19.03125 -26.945312 19.03125 -26.75 L 19.03125 -0.75 C 19.03125 -0.550781 18.953125 -0.375 18.796875 -0.21875 C 18.648438 -0.0703125 18.476562 0 18.28125 0 C 18.0625 0 17.878906 -0.0703125 17.734375 -0.21875 C 17.597656 -0.375 17.53125 -0.550781 17.53125 -0.75 L 17.53125 -4.265625 C 16.9375 -2.953125 15.992188 -1.847656 14.703125 -0.953125 C 13.421875 -0.0664062 11.988281 0.375 10.40625 0.375 C 8.789062 0.375 7.328125 -0.0507812 6.015625 -0.90625 C 4.703125 -1.757812 3.664062 -2.929688 2.90625 -4.421875 C 2.15625 -5.910156 1.78125 -7.570312 1.78125 -9.40625 C 1.78125 -11.238281 2.15625 -12.894531 2.90625 -14.375 C 3.664062 -15.863281 4.703125 -17.03125 6.015625 -17.875 C 7.328125 -18.71875 8.789062 -19.140625 10.40625 -19.140625 C 11.9375 -19.140625 13.359375 -18.703125 14.671875 -17.828125 C 15.984375 -16.960938 16.9375 -15.835938 17.53125 -14.453125 L 17.53125 -26.75 C 17.53125 -26.945312 17.597656 -27.117188 17.734375 -27.265625 C 17.878906 -27.421875 18.0625 -27.5 18.28125 -27.5 Z M 10.484375 -1.046875 C 11.867188 -1.046875 13.101562 -1.40625 14.1875 -2.125 C 15.28125 -2.84375 16.132812 -3.835938 16.75 -5.109375 C 17.375 -6.378906 17.6875 -7.8125 17.6875 -9.40625 C 17.6875 -10.988281 17.375 -12.410156 16.75 -13.671875 C 16.132812 -14.929688 15.273438 -15.921875 14.171875 -16.640625 C 13.066406 -17.359375 11.835938 -17.71875 10.484375 -17.71875 C 9.140625 -17.71875 7.914062 -17.359375 6.8125 -16.640625 C 5.71875 -15.921875 4.851562 -14.921875 4.21875 -13.640625 C 3.582031 -12.367188 3.265625 -10.957031 3.265625 -9.40625 C 3.265625 -7.8125 3.582031 -6.382812 4.21875 -5.125 C 4.851562 -3.863281 5.710938 -2.867188 6.796875 -2.140625 C 7.890625 -1.410156 9.117188 -1.046875 10.484375 -1.046875 Z M 10.484375 -1.046875" transform="translate(624.814 628.782)"/></g></g></g><g><g><g><path d="M 18.28125 -18.546875 C 18.5 -18.546875 18.675781 -18.46875 18.8125 -18.3125 C 18.957031 -18.164062 19.03125 -17.992188 19.03125 -17.796875 L 19.03125 -0.75 C 19.03125 -0.550781 18.953125 -0.375 18.796875 -0.21875 C 18.648438 -0.0703125 18.476562 0 18.28125 0 C 18.0625 0 17.878906 -0.0703125 17.734375 -0.21875 C 17.597656 -0.375 17.53125 -0.550781 17.53125 -0.75 L 17.53125 -4.09375 C 16.914062 -2.820312 15.960938 -1.757812 14.671875 -0.90625 C 13.390625 -0.0507812 11.96875 0.375 10.40625 0.375 C 8.769531 0.375 7.296875 -0.0507812 5.984375 -0.90625 C 4.671875 -1.757812 3.640625 -2.9375 2.890625 -4.4375 C 2.148438 -5.9375 1.78125 -7.613281 1.78125 -9.46875 C 1.78125 -11.300781 2.15625 -12.953125 2.90625 -14.421875 C 3.664062 -15.898438 4.703125 -17.054688 6.015625 -17.890625 C 7.328125 -18.722656 8.789062 -19.140625 10.40625 -19.140625 C 12.007812 -19.140625 13.457031 -18.71875 14.75 -17.875 C 16.039062 -17.03125 16.96875 -15.898438 17.53125 -14.484375 L 17.53125 -17.796875 C 17.53125 -17.992188 17.597656 -18.164062 17.734375 -18.3125 C 17.878906 -18.46875 18.0625 -18.546875 18.28125 -18.546875 Z M 10.484375 -1.046875 C 11.835938 -1.046875 13.066406 -1.410156 14.171875 -2.140625 C 15.273438 -2.867188 16.132812 -3.875 16.75 -5.15625 C 17.375 -6.445312 17.6875 -7.882812 17.6875 -9.46875 C 17.6875 -10.976562 17.375 -12.363281 16.75 -13.625 C 16.132812 -14.894531 15.273438 -15.894531 14.171875 -16.625 C 13.066406 -17.351562 11.835938 -17.71875 10.484375 -17.71875 C 9.117188 -17.71875 7.882812 -17.363281 6.78125 -16.65625 C 5.675781 -15.957031 4.8125 -14.984375 4.1875 -13.734375 C 3.570312 -12.484375 3.265625 -11.0625 3.265625 -9.46875 C 3.265625 -7.882812 3.570312 -6.445312 4.1875 -5.15625 C 4.8125 -3.875 5.664062 -2.867188 6.75 -2.140625 C 7.84375 -1.410156 9.085938 -1.046875 10.484375 -1.046875 Z M 10.484375 -1.046875" transform="translate(646.924 628.782)"/></g></g></g><g><g><g><path d="M 18.28125 -27.5 C 18.5 -27.5 18.675781 -27.421875 18.8125 -27.265625 C 18.957031 -27.117188 19.03125 -26.945312 19.03125 -26.75 L 19.03125 -0.75 C 19.03125 -0.550781 18.953125 -0.375 18.796875 -0.21875 C 18.648438 -0.0703125 18.476562 0 18.28125 0 C 18.0625 0 17.878906 -0.0703125 17.734375 -0.21875 C 17.597656 -0.375 17.53125 -0.550781 17.53125 -0.75 L 17.53125 -4.265625 C 16.9375 -2.953125 15.992188 -1.847656 14.703125 -0.953125 C 13.421875 -0.0664062 11.988281 0.375 10.40625 0.375 C 8.789062 0.375 7.328125 -0.0507812 6.015625 -0.90625 C 4.703125 -1.757812 3.664062 -2.929688 2.90625 -4.421875 C 2.15625 -5.910156 1.78125 -7.570312 1.78125 -9.40625 C 1.78125 -11.238281 2.15625 -12.894531 2.90625 -14.375 C 3.664062 -15.863281 4.703125 -17.03125 6.015625 -17.875 C 7.328125 -18.71875 8.789062 -19.140625 10.40625 -19.140625 C 11.9375 -19.140625 13.359375 -18.703125 14.671875 -17.828125 C 15.984375 -16.960938 16.9375 -15.835938 17.53125 -14.453125 L 17.53125 -26.75 C 17.53125 -26.945312 17.597656 -27.117188 17.734375 -27.265625 C 17.878906 -27.421875 18.0625 -27.5 18.28125 -27.5 Z M 10.484375 -1.046875 C 11.867188 -1.046875 13.101562 -1.40625 14.1875 -2.125 C 15.28125 -2.84375 16.132812 -3.835938 16.75 -5.109375 C 17.375 -6.378906 17.6875 -7.8125 17.6875 -9.40625 C 17.6875 -10.988281 17.375 -12.410156 16.75 -13.671875 C 16.132812 -14.929688 15.273438 -15.921875 14.171875 -16.640625 C 13.066406 -17.359375 11.835938 -17.71875 10.484375 -17.71875 C 9.140625 -17.71875 7.914062 -17.359375 6.8125 -16.640625 C 5.71875 -15.921875 4.851562 -14.921875 4.21875 -13.640625 C 3.582031 -12.367188 3.265625 -10.957031 3.265625 -9.40625 C 3.265625 -7.8125 3.582031 -6.382812 4.21875 -5.125 C 4.851562 -3.863281 5.710938 -2.867188 6.796875 -2.140625 C 7.890625 -1.410156 9.117188 -1.046875 10.484375 -1.046875 Z M 10.484375 -1.046875" transform="translate(669.035 628.782)"/></g></g></g><g><g><g><path d="M 20.109375 -9.359375 C 20.109375 -7.523438 19.707031 -5.867188 18.90625 -4.390625 C 18.113281 -2.921875 17.019531 -1.757812 15.625 -0.90625 C 14.226562 -0.0507812 12.675781 0.375 10.96875 0.375 C 9.25 0.375 7.691406 -0.0507812 6.296875 -0.90625 C 4.898438 -1.757812 3.796875 -2.929688 2.984375 -4.421875 C 2.179688 -5.910156 1.78125 -7.554688 1.78125 -9.359375 C 1.78125 -11.191406 2.179688 -12.851562 2.984375 -14.34375 C 3.796875 -15.832031 4.894531 -17.003906 6.28125 -17.859375 C 7.664062 -18.710938 9.226562 -19.140625 10.96875 -19.140625 C 12.675781 -19.140625 14.226562 -18.710938 15.625 -17.859375 C 17.019531 -17.003906 18.113281 -15.832031 18.90625 -14.34375 C 19.707031 -12.851562 20.109375 -11.191406 20.109375 -9.359375 Z M 18.609375 -9.359375 C 18.609375 -10.941406 18.28125 -12.363281 17.625 -13.625 C 16.96875 -14.894531 16.054688 -15.894531 14.890625 -16.625 C 13.734375 -17.351562 12.425781 -17.71875 10.96875 -17.71875 C 9.53125 -17.71875 8.222656 -17.351562 7.046875 -16.625 C 5.867188 -15.894531 4.941406 -14.894531 4.265625 -13.625 C 3.597656 -12.363281 3.265625 -10.941406 3.265625 -9.359375 C 3.265625 -7.796875 3.597656 -6.382812 4.265625 -5.125 C 4.941406 -3.863281 5.867188 -2.867188 7.046875 -2.140625 C 8.222656 -1.410156 9.53125 -1.046875 10.96875 -1.046875 C 12.425781 -1.046875 13.734375 -1.40625 14.890625 -2.125 C 16.054688 -2.84375 16.96875 -3.835938 17.625 -5.109375 C 18.28125 -6.378906 18.609375 -7.796875 18.609375 -9.359375 Z M 18.609375 -9.359375" transform="translate(691.145 628.782)"/></g></g></g></svg>